<?xml version="1.0" encoding="utf-8"?>
<!-- Generator: Adobe Illustrator 24.0.0, SVG Export Plug-In . SVG Version: 6.00 Build 0)  -->
<svg version="1.1" id="Calque_1" xmlns="http://www.w3.org/2000/svg" xmlns:xlink="http://www.w3.org/1999/xlink" x="0px" y="0px"
	 viewBox="0 0 48 48" style="enable-background:new 0 0 48 48;" xml:space="preserve">
<style type="text/css">
	.st0{fill:#FFFFFF;}
</style>
<path class="st0" d="M7.8,34.5c-0.2,0-0.4-0.1-0.5-0.2C7.1,34.2,7,34,7,33.8c0-0.2,0.1-0.4,0.2-0.5C7.4,33.1,7.6,33,7.8,33h32.5
	c0.2,0,0.4,0.1,0.5,0.2s0.2,0.3,0.2,0.6c0,0.2-0.1,0.4-0.2,0.5c-0.1,0.1-0.3,0.2-0.5,0.2C40.2,34.5,7.8,34.5,7.8,34.5z M7.8,24.8
	c-0.2,0-0.4-0.1-0.5-0.2C7.1,24.4,7,24.2,7,24c0-0.2,0.1-0.4,0.2-0.5c0.1-0.1,0.3-0.2,0.5-0.2h32.5c0.2,0,0.4,0.1,0.5,0.2
	c0.1,0.1,0.2,0.3,0.2,0.6c0,0.2-0.1,0.4-0.2,0.5c-0.1,0.1-0.3,0.2-0.5,0.2C40.2,24.8,7.8,24.8,7.8,24.8z M7.8,15
	c-0.2,0-0.4-0.1-0.5-0.2C7.1,14.6,7,14.4,7,14.2c0-0.2,0.1-0.4,0.2-0.5c0.1-0.1,0.3-0.2,0.5-0.2h32.5c0.2,0,0.4,0.1,0.5,0.2
	c0.1,0.1,0.2,0.3,0.2,0.6c0,0.2-0.1,0.4-0.2,0.5c-0.1,0.1-0.3,0.2-0.5,0.2C40.2,15,7.8,15,7.8,15z"/>
</svg>
