<?xml version="1.0" encoding="utf-8"?>
<!-- Generator: Adobe Illustrator 24.0.0, SVG Export Plug-In . SVG Version: 6.00 Build 0)  -->
<svg version="1.1" id="Calque_1" xmlns="http://www.w3.org/2000/svg" xmlns:xlink="http://www.w3.org/1999/xlink" x="0px" y="0px"
	 viewBox="0 0 409.6 409.6" style="enable-background:new 0 0 409.6 409.6;" xml:space="preserve">
<style type="text/css">
	.st0{fill:#FFFFFF;}
</style>
<g>
	<path d="M366.6,409.6c-108.1,0-216.2,0-324.2,0c-0.6-0.2-1.2-0.6-1.8-0.7c-13.2-2.1-23.6-8.8-31.5-19.4C4,382.9,1.7,375.2,0,367.3
		C0,269.9,0,172.5,0,75c0.3-0.9,0.6-1.7,0.8-2.6C4,55.8,13.4,44,28.6,36.8c8.8-4.2,18.3-4.3,27.7-4.1c3.5,0.1,7.1,0,10.9,0
		c0-10.9,0-21.3,0-31.7c10.7,0,21.1,0,32,0c0,10.7,0,21.1,0,31.5c70.4,0,140.3,0,210.7,0c0-10.6,0-21,0-31.4c10.9,0,21.3,0,32,0
		c0,10.6,0,20.9,0,31.6c6.1,0,12-0.3,17.7,0.1c5.7,0.4,11.5,0.9,16.8,2.6c20.1,6.7,32.4,24.8,32.4,46.8c0,92.6,0,185.2,0,277.8
		c0,0.8,0,1.6,0,2.4c-0.6,15.7-7.1,28.4-19.7,37.9C382.5,405.5,374.7,407.8,366.6,409.6z M377,151.2c-115.3,0-230,0-345,0
		c0,1.7,0,3.2,0,4.6c0,67.6,0,135.2,0,202.8c0,13,6,19.1,19,19.1c102.3,0,204.7,0,307,0c13,0,19-6,19-19.1c0-67.6,0-135.2,0-202.8
		C377,154.4,377,152.9,377,151.2z M32,118.7c115.2,0,230,0,344.9,0c0-13.3,0.2-26.3-0.1-39.3c-0.2-7.3-5.9-13.6-13.3-14.3
		c-7.1-0.6-14.3-0.1-21.8-0.1c0,10.7,0,21.1,0,31.4c-10.9,0-21.3,0-32,0c0-10.7,0-21,0-31.3c-70.4,0-140.4,0-210.7,0
		c0,10.6,0,20.9,0,31.4c-10.7,0-21.1,0-32,0c0-10.7,0-21.1,0-31.6c-6.9,0-13.5-0.2-20,0.1c-8.2,0.4-14.7,6.8-14.9,14.9
		C31.8,92.6,32,105.5,32,118.7z"/>
	<path class="st0" d="M366.6,409.6c8.1-1.8,15.9-4.1,22.6-9.3c12.5-9.5,19.1-22.2,19.7-37.9c0-0.8,0-1.6,0-2.4
		c0-92.6,0-185.2,0-277.8c0-22-12.3-40.2-32.4-46.8c-5.3-1.8-11.2-2.2-16.8-2.6c-5.8-0.4-11.6-0.1-17.7-0.1c0-10.7,0-21,0-31.6
		c-10.7,0-21.1,0-32,0c0,10.4,0,20.8,0,31.4c-70.4,0-140.3,0-210.7,0c0-10.4,0-20.8,0-31.5c-10.9,0-21.3,0-32,0
		c0,10.4,0,20.7,0,31.7c-3.8,0-7.3,0.1-10.9,0c-9.5-0.2-18.9-0.1-27.7,4.1C13.4,44,4,55.8,0.8,72.4C0.6,73.3,0.3,74.2,0,75
		C0,50,0,25,0,0c136.5,0,273,0,409.6,0c0,136.5,0,273.1,0,409.6C395.3,409.6,380.9,409.6,366.6,409.6z"/>
	<path class="st0" d="M0,367.3c1.7,7.9,4,15.6,8.9,22.2c7.9,10.7,18.3,17.4,31.5,19.4c0.6,0.1,1.2,0.4,1.8,0.7
		c-14.1,0-28.2,0-42.3,0C0,395.5,0,381.4,0,367.3z"/>
	<path class="st0" d="M377,151.2c0,1.7,0,3.2,0,4.6c0,67.6,0,135.2,0,202.8c0,13-6,19.1-19,19.1c-102.3,0-204.7,0-307,0
		c-13,0-19-6.1-19-19.1c0-67.6,0-135.2,0-202.8c0-1.4,0-2.9,0-4.6C146.9,151.2,261.7,151.2,377,151.2z M60.9,216.2
		c10.8,0,21.1,0,31.6,0c0-10.6,0-21,0-31.5c-10.6,0-21.1,0-31.6,0C60.9,195.3,60.9,205.6,60.9,216.2z M156.3,216.2
		c0-10.7,0-21.1,0-31.4c-10.7,0-21.1,0-31.5,0c0,10.6,0,21,0,31.4C135.3,216.2,145.6,216.2,156.3,216.2z M188.7,184.6
		c0,10.7,0,21.1,0,31.4c10.7,0,21.1,0,31.5,0c0-10.6,0-20.9,0-31.4C209.7,184.6,199.4,184.6,188.7,184.6z M284.1,184.7
		c-10.7,0-21.1,0-31.5,0c0,10.7,0,21.1,0,31.5c10.6,0,21,0,31.5,0C284.1,205.6,284.1,195.3,284.1,184.7z M316.5,184.6
		c0,10.7,0,21.1,0,31.4c10.7,0,21.1,0,31.4,0c0-10.6,0-21,0-31.4C337.5,184.6,327.1,184.6,316.5,184.6z M60.9,280
		c10.7,0,21.1,0,31.5,0c0-10.7,0-21.1,0-31.4c-10.6,0-21,0-31.5,0C60.9,259,60.9,269.4,60.9,280z M124.9,248.5c0,10.7,0,21.1,0,31.4
		c10.7,0,21.1,0,31.4,0c0-10.6,0-21,0-31.4C145.8,248.5,135.5,248.5,124.9,248.5z M220.2,248.6c-10.7,0-21.1,0-31.5,0
		c0,10.7,0,21.1,0,31.4c10.6,0,21,0,31.5,0C220.2,269.5,220.2,259.2,220.2,248.6z M284,280.1c0-10.7,0-21.1,0-31.4
		c-10.7,0-21.1,0-31.5,0c0,10.6,0,21,0,31.4C263.1,280.1,273.4,280.1,284,280.1z M316.5,248.5c0,10.7,0,21.1,0,31.4
		c10.7,0,21.1,0,31.5,0c0-10.6,0-21,0-31.4C337.5,248.5,327.1,248.5,316.5,248.5z M92.5,312.5c-10.7,0-21.1,0-31.5,0
		c0,10.7,0,21.1,0,31.4c10.6,0,21,0,31.5,0C92.5,333.4,92.5,323.1,92.5,312.5z M156.4,312.5c-10.7,0-21.1,0-31.5,0
		c0,10.7,0,21.1,0,31.4c10.6,0,21,0,31.5,0C156.4,333.4,156.4,323.1,156.4,312.5z M220.1,344c0-10.5,0-21,0-31.6
		c-10.5,0-21,0-31.3,0c0,10.7,0,21.1,0,31.6C199.3,344,209.5,344,220.1,344z M252.7,312.4c0,10.7,0,21.1,0,31.4
		c10.7,0,21.1,0,31.5,0c0-10.6,0-21,0-31.4C273.6,312.4,263.3,312.4,252.7,312.4z"/>
	<path class="st0" d="M32,118.7c0-13.2-0.2-26.1,0.1-39c0.2-8.2,6.7-14.6,14.9-14.9c6.5-0.3,13-0.1,20-0.1c0,10.6,0,21,0,31.6
		c10.9,0,21.3,0,32,0c0-10.5,0-20.8,0-31.4c70.3,0,140.4,0,210.7,0c0,10.3,0,20.7,0,31.3c10.7,0,21.1,0,32,0c0-10.3,0-20.7,0-31.4
		c7.6,0,14.8-0.5,21.8,0.1c7.3,0.7,13.1,7,13.3,14.3c0.3,13,0.1,26,0.1,39.3C262,118.7,147.2,118.7,32,118.7z"/>
	<path d="M60.9,216.2c0-10.6,0-20.9,0-31.5c10.5,0,20.9,0,31.6,0c0,10.5,0,20.9,0,31.5C81.9,216.2,71.6,216.2,60.9,216.2z"/>
	<path d="M156.3,216.2c-10.6,0-20.9,0-31.5,0c0-10.5,0-20.8,0-31.4c10.3,0,20.8,0,31.5,0C156.3,195.1,156.3,205.5,156.3,216.2z"/>
	<path d="M188.7,184.6c10.7,0,21,0,31.5,0c0,10.5,0,20.8,0,31.4c-10.4,0-20.8,0-31.5,0C188.7,205.7,188.7,195.3,188.7,184.6z"/>
	<path d="M284.1,184.7c0,10.6,0,20.9,0,31.5c-10.5,0-20.8,0-31.5,0c0-10.3,0-20.8,0-31.5C263,184.7,273.4,184.7,284.1,184.7z"/>
	<path d="M316.5,184.6c10.6,0,20.9,0,31.4,0c0,10.5,0,20.8,0,31.4c-10.3,0-20.7,0-31.4,0C316.5,205.8,316.5,195.3,316.5,184.6z"/>
	<path d="M60.9,280c0-10.6,0-20.9,0-31.4c10.5,0,20.8,0,31.5,0c0,10.3,0,20.7,0,31.4C82,280,71.6,280,60.9,280z"/>
	<path d="M124.9,248.5c10.6,0,20.9,0,31.4,0c0,10.5,0,20.8,0,31.4c-10.3,0-20.7,0-31.4,0C124.9,269.6,124.9,259.2,124.9,248.5z"/>
	<path d="M220.2,248.6c0,10.6,0,20.9,0,31.4c-10.5,0-20.8,0-31.5,0c0-10.3,0-20.7,0-31.4C199.1,248.6,209.5,248.6,220.2,248.6z"/>
	<path d="M284,280.1c-10.6,0-20.9,0-31.5,0c0-10.5,0-20.8,0-31.4c10.3,0,20.8,0,31.5,0C284,258.9,284,269.3,284,280.1z"/>
	<path d="M316.5,248.5c10.6,0,20.9,0,31.5,0c0,10.5,0,20.8,0,31.4c-10.3,0-20.8,0-31.5,0C316.5,269.6,316.5,259.2,316.5,248.5z"/>
	<path d="M92.5,312.5c0,10.6,0,20.9,0,31.4c-10.5,0-20.8,0-31.5,0c0-10.3,0-20.8,0-31.4C71.3,312.5,81.7,312.5,92.5,312.5z"/>
	<path d="M156.4,312.5c0,10.6,0,20.9,0,31.4c-10.5,0-20.8,0-31.5,0c0-10.3,0-20.7,0-31.4C135.2,312.5,145.6,312.5,156.4,312.5z"/>
	<path d="M220.1,344c-10.6,0-20.8,0-31.3,0c0-10.5,0-20.9,0-31.6c10.3,0,20.8,0,31.3,0C220.1,323,220.1,333.5,220.1,344z"/>
	<path d="M252.7,312.4c10.6,0,20.9,0,31.5,0c0,10.5,0,20.8,0,31.4c-10.3,0-20.8,0-31.5,0C252.7,333.5,252.7,323.1,252.7,312.4z"/>
</g>
</svg>
