<?xml version="1.0" encoding="utf-8"?>
<!-- Generator: Adobe Illustrator 24.0.0, SVG Export Plug-In . SVG Version: 6.00 Build 0)  -->
<svg version="1.1" id="Calque_1" xmlns="http://www.w3.org/2000/svg" xmlns:xlink="http://www.w3.org/1999/xlink" x="0px" y="0px"
	 viewBox="0 0 609.3 609" style="enable-background:new 0 0 609.3 609;" xml:space="preserve">
<style type="text/css">
	.st0{stroke:#000000;stroke-width:9;stroke-miterlimit:10;}
	.st1{fill:#FFFFFF;stroke:#000000;stroke-width:9;stroke-miterlimit:10;}
</style>
<path class="st0" d="M260.8,270.9c12.6,5.1,26.3,9.5,38.8,16c53.9,27.8,89,70.7,104.6,128.5c1.4,5.3,3.6,7.5,9.1,6.6
	c2-0.3,4.1-0.2,6.1,0c3.5,0.4,4.9-1.2,6-4.4c5.4-16.8,11.1-33.5,16.7-50.3c3.1-9.2,8-13.4,15.8-13.5c8.1-0.1,13.1,4.1,16.3,13.7
	c5.4,16.4,11,32.7,16.2,49.2c1.3,4.2,3.4,5.5,7.8,5.4c17.6-0.2,35.2-0.1,52.8-0.1c9.8,0,15.4,3.4,17.9,10.7c2.5,7.3,0,13.3-7.9,19
	c-15.7,11.2-31.4,22.4-47.5,33.9c5.5,16.8,11.1,33.5,16.6,50.2c0.8,2.5,1.7,4.9,2.4,7.5c1.9,6.8-0.3,13.3-5.7,17.1
	c-5.7,4.1-12.5,4.2-18.9-0.2c-12.9-8.9-25.5-18.1-38.3-27.2c-3.6-2.6-7.3-5.2-11.3-8c-12.2,8.7-24.4,17.4-36.7,26.1
	c-4.1,2.9-8.2,6-12.4,8.8c-6.8,4.6-13.5,4.7-19.4,0.5c-5.7-4.1-7.8-10.7-5.4-18.3c6.1-18.7,12.3-37.4,18.6-56.6
	c-14.3-10.2-28.6-20.6-43.2-30.5c-2-1.4-5.5-1-8.3-1.1c-5.5-0.1-11,0-15,0c0,14.1,0.3,27.9-0.3,41.6c-0.1,2.4-4,6-6.8,6.7
	c-10.2,2.6-15.4,8.6-19.2,18.3c-3.1,7.9-3.5,13.8,0.5,21.1c4.4,8.2,3.6,10.4-3.1,16.9c-6.2,6.1-12.5,12.1-18.6,18.3
	c-4.2,4.3-9,5.8-14.3,2.6c-8.4-5.2-16.5-5.9-24.8-0.1c-0.5,0.3-1.1,0.6-1.7,0.7c-8,1.3-11.7,6.2-14,13.6c-3,9.8-5.2,10.8-15.6,10.8
	c-8.6,0-17.2-0.1-25.8,0c-5.9,0.1-10.3-2.3-11.6-7.8c-2.3-10-8.6-14.7-18.2-18.4c-8-3-14.1-3.6-21.6,0.3c-8.5,4.4-10.6,3.6-17.7-3.3
	c-6.1-5.9-12.1-12-18.3-17.8c-4.4-4.1-6.1-8.8-2.8-14c5.4-8.4,4.5-15.9,0.5-25c-3.6-8.1-7.8-13-16.4-15.5c-8.2-2.3-9.3-4.8-9.3-13.3
	c0-8-0.1-16.1,0-24.1c0.1-3.7,0.7-7.4,1.2-11.7c-10.8,0-22.1,0-33.5,0c-9.6,0-19.2,0-28.9,0c-8.7-0.1-12.5-4-11.4-12.5
	c7-55.3,33.1-100.1,77.5-134.6c20.2-15.7,43-27,67.8-34c1.3-0.4,2.6-0.9,4.6-1.6c-34.7-21.3-54.3-51-55.3-91.2
	c-0.7-29.6,10-55,31.1-76c42.8-42.7,112.6-41.6,155,1.6C329.5,150.5,325.9,235.2,260.8,270.9z M385.5,422.1
	c-18.5-77.7-93.3-142.4-187.8-137.5C98.1,289.7,35.7,366,26,434c0.2,0.1,0.3,0.3,0.5,0.3c24.5,0.1,49.1,0.3,73.6,0.3
	c1.2,0,2.9-0.8,3.4-1.7c2.9-5,6.3-10,1.8-15.9c-1.3-1.7-1.8-4-2.8-6c-2.9-5.4-1.8-9.9,2.7-14.1c6.5-6.1,12.8-12.5,19.1-18.7
	c6.2-6,8.7-6.9,16.2-2.9c7.8,4.1,14.3,3.9,22.7,0.5c9.4-3.7,15.4-8.4,17.7-18c1.3-5.6,5.5-8,11.5-7.9c9.4,0.2,18.8,0.3,28.2,0
	c6.7-0.2,11.1,2.4,12.8,8.7c2.3,8.4,7.1,13.1,15.9,16.7c9.4,3.8,17,4.4,25.5-0.7c4.5-2.6,9-2.1,12.9,1.7
	c7.4,7.2,14.8,14.5,22.1,21.7c3.4,3.3,4.2,7.2,2.2,11.6c-1.8,3.8-3.6,7.7-5.1,11.6c-2.1,5.2,3.5,13.5,9,13.5
	c8.8,0,17.6,0.2,26.4-0.1c1.8-0.1,4.4-1.3,5.1-2.7c3.5-7,9-10,16.8-9.9C371.1,422.1,378,422.1,385.5,422.1z M206.9,91.9
	c-48.7,0-88.1,38.8-88,86.7c0.1,47.6,39.4,86.1,87.8,86.2c48.8,0.1,88.2-38.5,88.3-86.4C295.1,130.7,255.6,91.9,206.9,91.9z
	 M316.6,477.5c2.3-7.7-1.2-11.6-8.7-13.1c-6.7-1.4-10.2-5.8-11.8-12.3c-1.3-5.2-2.9-10.7-5.9-15.1c-6-8.7-6.3-16.9-0.6-25.6
	c0.8-1.2,1.6-3.7,1-4.4c-3.8-4.2-7.6-8.7-12.2-11.7c-1.7-1.1-6.1,1.2-8.8,2.7c-6.2,3.3-11.7,3.1-17.8-0.6
	c-5.2-3.1-10.9-5.9-16.8-7.1c-9-1.8-14-6.5-16.2-15c-0.5-2-1.7-5.4-2.9-5.5c-5.6-0.6-11.5-1-17.1-0.1c-1.8,0.3-3.6,4.5-4.3,7.2
	c-2,7.5-6.8,11.2-14.3,13c-6.1,1.5-12.1,4-17.5,7.1c-6.5,3.8-12.4,4.4-18.9,0.6c-2.4-1.4-6.4-3.6-7.7-2.7
	c-4.7,3.1-8.9,7.1-12.3,11.5c-1,1.3,0.5,5.3,1.8,7.5c4.4,7.2,4,13.7-0.8,20.7c-2.9,4.3-5.3,9.3-6.2,14.3
	c-1.7,9.7-7.5,14.6-16.6,16.9c-1.7,0.4-4.5,1.4-4.6,2.4c-0.5,5.6-1,11.3-0.1,16.7c0.3,1.8,4.6,3.4,7.4,4.2c7.5,2.1,11.7,6.4,13.3,14
	c1,4.6,2.6,9.6,5.3,13.4c6.6,9,6.6,17.6,0.7,26.7c-0.7,1.1-1.4,3.2-0.9,3.8c3.8,4.2,7.5,8.7,12.1,11.8c1.6,1.1,6-1.2,8.8-2.6
	c6.4-3.4,12.1-3,18.4,0.7c5.9,3.4,12.6,5.8,19.2,7.7c6.4,1.8,10.5,5,12.2,11.2c0.5,1.9,1.1,4,2.3,5.5c1.3,1.6,3.2,3,5.2,3.6
	c2.1,0.6,4.5-0.2,6.7,0.2c6.3,1.1,9.9-1.3,11.3-7.5c1.6-7.6,6.5-11.7,14.5-13.5c6.5-1.5,12.7-4.6,18.5-7.7c5.5-3,10.4-3.4,16.2-0.6
	c9.4,4.5,9.1,3.8,16.8-2.7c5.3-4.5,6.3-8.5,2.5-14.2c-4.1-6.2-3.3-12.1,0.6-18.5c3.4-5.6,5.8-12,7.6-18.3
	c1.8-6.4,5.2-10.7,11.8-12.3C314.5,488.3,319.4,485.4,316.6,477.5z M508,536.6c0.4-0.3,0.7-0.5,1.1-0.8c-5-15-10-30-14.9-45
	c-3-9.1-1.1-14.7,6.8-20.4c7.1-5.1,14.2-10.1,21.3-15.2c5.8-4.2,11.7-8.4,17.5-12.5c-0.2-0.5-0.3-0.9-0.5-1.4c-2,0-3.9,0-5.9,0
	c-13.9,0-27.8,0.1-41.7,0c-10.3-0.1-14.9-3.3-18.1-12.9c-3.7-10.8-7.2-21.7-10.8-32.6c-1.4-4.1-2.8-8.1-4.7-13.5
	c-1.2,3.3-1.9,5.1-2.5,6.9c-4.4,13.1-8.7,26.3-13.2,39.4c-3.1,9.2-7.8,12.6-17.6,12.7c-14.1,0.1-28.2,0-42.3,0
	c-1.9,0-3.9,0.2-7.2,0.4c2.6,2,4.1,3.3,5.7,4.4c10.9,7.8,21.8,15.6,32.7,23.4c9.6,6.9,11.3,11.7,7.7,22.7
	c-4.3,13.2-8.7,26.3-13,39.4c-0.5,1.6-0.8,3.2-1.5,5.9c13.5-9.6,26.1-18.6,38.6-27.5c9.9-7,15-7.1,24.9-0.1
	C482.9,518.8,495.5,527.7,508,536.6z"/>
<path class="st0" d="M478.8,109.9c-6.8,0-12.9-0.1-19,0c-6.9,0.1-12.5-2-15.4-8.7c-2.7-6.3-0.9-11.6,3.5-16.6
	c21.4-24.6,42.6-49.3,64-73.8c7.3-8.4,16.8-8.5,24.1-0.1c21.7,24.8,43.2,49.8,64.8,74.8c4.2,4.9,5.3,10.3,2.5,16.2
	c-2.7,5.7-7.6,8.1-13.9,8.2c-6.5,0-13,0-20.2,0c0,3.2,0,5.5,0,7.9c0,30.9,0,61.8,0,92.7c0,1.6,0,3.2,0,4.8
	c-0.2,7.3-3.7,11.5-9.6,11.7c-6,0.2-10.1-4.3-10.1-11.8c-0.1-35.3,0-70.6,0-106c0-2.6-0.1-5.2,0-7.8c0.4-7.2,3.8-10.6,11.1-10.9
	c5.7-0.2,11.3,0,18.6,0C560.3,68.7,542.4,48,524,26.7c-18.3,21.1-36.2,41.8-55.3,63.8c6.4,0,11.4,0,16.3,0
	c10.1,0.1,13.4,3.2,13.4,12.9c0,54.8,0,109.6,0,164.4c0,2.2-0.1,4.5-0.9,6.5c-1.6,4.5-5.2,6.6-10.1,6.1c-4.8-0.5-7.8-3.3-8.6-8.1
	c-0.3-2.2-0.2-4.4-0.2-6.6c0-49.2,0-98.3,0-147.5C478.8,115.8,478.8,113.4,478.8,109.9z"/>
<path class="st0" d="M436.3,195.3c-15.4-17.8-29.6-34.2-44.4-51.3c-14.6,16.8-28.9,33.4-44.4,51.3c5.3,0,9.1-0.2,12.8,0
	c7.4,0.4,10.9,3.7,10.9,11c0.1,28.3,0.1,56.6,0,84.9c0,6.9-3.7,10.8-9.5,11c-6,0.1-10.1-4-10.1-11.1c-0.1-23.1-0.1-46.2-0.1-69.2
	c0-2.2,0-4.3,0-7.2c-5.7,0-10.8,0-15.9,0c-6.1,0-10.7-2.4-13.3-8c-2.5-5.5-1.5-10.6,2.5-15.1c18.5-21.4,37-42.9,55.6-64.2
	c6.8-7.8,15.8-8,22.7-0.2c18.8,21.4,37.4,43.1,56,64.7c3.9,4.5,4.9,9.7,2.1,15.1c-2.6,5.2-7,7.7-12.9,7.7c-5.3,0-10.5,0-16.2,0
	c0,3,0,5.2,0,7.4c0,41.1,0,82.3,0,123.4c0,2,0.1,4-0.2,6c-0.9,5.1-5.5,8.9-10.4,8.3c-5.3-0.7-8.5-3.6-9-9c-0.2-1.8-0.1-3.6-0.1-5.4
	c0-45.1,0-90.3,0-135.4c0-12,2.6-14.5,14.7-14.6C429.6,195.3,432.1,195.3,436.3,195.3z"/>
<path class="st0" d="M569.1,260.6c0,3.8,0.2,7.6-0.1,11.4c-0.4,5.1-4.2,8.3-9.5,8.4c-5.4,0.1-9.7-3-9.9-8c-0.4-8-0.4-16,0-23.9
	c0.2-5,4.6-8.1,10-7.9c5.1,0.1,8.9,3.2,9.3,8C569.3,252.6,569.1,256.6,569.1,260.6C569.1,260.6,569.1,260.6,569.1,260.6z"/>
<path class="st0" d="M569.1,313.8c0,3.9,0.3,7.7-0.1,11.6c-0.4,4.8-4.3,8-9.4,8.1c-5.4,0.1-9.8-3.1-10-8.1
	c-0.4-7.9-0.3-15.8,0.1-23.7c0.2-4.7,4.6-7.9,9.7-7.9c5,0,9.2,3.2,9.6,7.9C569.3,305.7,569.1,309.7,569.1,313.8
	C569.1,313.8,569.1,313.8,569.1,313.8z"/>
<path class="st0" d="M478.8,313.5c0-3.9-0.2-7.7,0-11.6c0.3-4.7,4.3-8.2,9.4-8.1c5.4,0.1,9.5,2.6,9.8,7.1c0.6,8.4,0.5,16.9,0.1,25.3
	c-0.3,4.6-5.1,7.6-10.2,7.3c-5.1-0.3-8.7-3.5-9.1-8.4c0-0.4,0-0.7,0-1.1C478.8,320.5,478.8,317,478.8,313.5
	C478.8,313.5,478.8,313.5,478.8,313.5z"/>
<path class="st1" d="M385.5,422.1c-7.5,0-14.4,0.1-21.3,0c-7.7-0.1-13.3,2.8-16.8,9.9c-0.7,1.4-3.3,2.6-5.1,2.7
	c-8.8,0.3-17.6,0.1-26.4,0.1c-5.5,0-11.1-8.3-9-13.5c1.6-3.9,3.4-7.7,5.1-11.6c2-4.4,1.1-8.2-2.2-11.6c-7.3-7.3-14.7-14.5-22.1-21.7
	c-3.9-3.8-8.4-4.3-12.9-1.7c-8.5,5.1-16,4.5-25.5,0.7c-8.8-3.6-13.6-8.2-15.9-16.7c-1.7-6.4-6.1-8.9-12.8-8.7
	c-9.4,0.3-18.8,0.2-28.2,0c-5.9-0.1-10.1,2.3-11.5,7.9c-2.3,9.7-8.3,14.3-17.7,18c-8.4,3.3-14.9,3.6-22.7-0.5
	c-7.5-4-10-3.1-16.2,2.9c-6.4,6.2-12.6,12.6-19.1,18.7c-4.4,4.2-5.5,8.7-2.7,14.1c1,2,1.5,4.3,2.8,6c4.5,5.9,1.1,10.9-1.8,15.9
	c-0.5,0.9-2.2,1.7-3.4,1.7c-24.5,0-49.1-0.1-73.6-0.3c-0.2,0-0.3-0.2-0.5-0.3c9.7-68,72.1-144.3,171.7-149.5
	C292.2,279.7,366.9,344.4,385.5,422.1z"/>
<path class="st1" d="M206.9,91.9c48.7,0,88.2,38.8,88.1,86.6c-0.1,47.9-39.5,86.4-88.3,86.4c-48.4-0.1-87.7-38.6-87.8-86.2
	C118.8,130.8,158.2,92,206.9,91.9z"/>
<path class="st1" d="M316.6,477.5c2.8,7.9-2.1,10.8-8.7,12.4c-6.7,1.6-10,5.9-11.8,12.3c-1.8,6.3-4.2,12.7-7.6,18.3
	c-3.9,6.4-4.7,12.3-0.6,18.5c3.8,5.7,2.8,9.7-2.5,14.2c-7.7,6.5-7.4,7.2-16.8,2.7c-5.8-2.7-10.6-2.4-16.2,0.6
	c-5.9,3.2-12.1,6.3-18.5,7.7c-8,1.8-12.8,5.8-14.5,13.5c-1.3,6.3-4.9,8.6-11.3,7.5c-2.2-0.4-4.6,0.4-6.7-0.2c-1.9-0.6-3.9-2-5.2-3.6
	c-1.2-1.5-1.8-3.6-2.3-5.5c-1.7-6.3-5.8-9.5-12.2-11.2c-6.6-1.8-13.3-4.3-19.2-7.7c-6.4-3.6-12-4.1-18.4-0.7
	c-2.7,1.5-7.2,3.7-8.8,2.6c-4.6-3.1-8.3-7.6-12.1-11.8c-0.5-0.6,0.2-2.7,0.9-3.8c5.8-9.1,5.8-17.7-0.7-26.7
	c-2.8-3.8-4.4-8.7-5.3-13.4c-1.6-7.6-5.8-11.9-13.3-14c-2.8-0.8-7.1-2.4-7.4-4.2c-0.9-5.4-0.4-11.2,0.1-16.7c0.1-0.9,2.9-2,4.6-2.4
	c9.1-2.3,14.9-7.2,16.6-16.9c0.9-5,3.3-10,6.2-14.3c4.7-7,5.1-13.5,0.8-20.7c-1.3-2.2-2.8-6.2-1.8-7.5c3.4-4.4,7.7-8.4,12.3-11.5
	c1.4-0.9,5.3,1.3,7.7,2.7c6.5,3.8,12.4,3.2,18.9-0.6c5.4-3.2,11.4-5.6,17.5-7.1c7.5-1.9,12.3-5.6,14.3-13c0.7-2.7,2.5-6.9,4.3-7.2
	c5.5-0.9,11.4-0.6,17.1,0.1c1.2,0.1,2.4,3.5,2.9,5.5c2.2,8.4,7.2,13.2,16.2,15c5.9,1.2,11.6,4,16.8,7.1c6.1,3.7,11.6,3.9,17.8,0.6
	c2.8-1.5,7.2-3.8,8.8-2.7c4.7,3,8.5,7.5,12.2,11.7c0.6,0.7-0.2,3.1-1,4.4c-5.7,8.7-5.4,16.9,0.6,25.6c3,4.4,4.6,9.9,5.9,15.1
	c1.6,6.5,5.1,11,11.8,12.3C315.4,465.9,318.9,469.7,316.6,477.5z M206.6,542.2c36.6,0.2,66.3-28.5,66.8-64.7
	c0.5-35.5-29.4-65.3-65.9-65.7c-36.6-0.4-66.9,29-67.1,65.1C140.2,512.8,169.9,542,206.6,542.2z"/>
<path class="st1" d="M508,536.6c-12.5-8.9-25.1-17.9-37.7-26.8c-9.8-7-15-6.9-24.9,0.1c-12.5,8.9-25.1,17.9-38.6,27.5
	c0.7-2.7,1-4.3,1.5-5.9c4.3-13.2,8.7-26.3,13-39.4c3.6-11,2-15.8-7.7-22.7c-10.9-7.8-21.8-15.6-32.7-23.4c-1.6-1.1-3.1-2.4-5.7-4.4
	c3.3-0.2,5.3-0.4,7.2-0.4c14.1,0,28.2,0.1,42.3,0c9.8-0.1,14.5-3.5,17.6-12.7c4.4-13.1,8.8-26.3,13.2-39.4c0.6-1.8,1.3-3.6,2.5-6.9
	c1.9,5.4,3.4,9.5,4.7,13.5c3.6,10.8,7.1,21.7,10.8,32.6c3.2,9.5,7.8,12.8,18.1,12.9c13.9,0.1,27.8,0,41.7,0c2,0,3.9,0,5.9,0
	c0.2,0.5,0.3,0.9,0.5,1.4c-5.8,4.2-11.7,8.4-17.5,12.5c-7.1,5.1-14.2,10.1-21.3,15.2c-7.9,5.7-9.8,11.3-6.8,20.4
	c4.9,15,9.9,30,14.9,45C508.7,536.1,508.4,536.4,508,536.6z"/>
<path class="st0" d="M206.6,542.2c-36.7-0.2-66.4-29.4-66.2-65.2c0.2-36.1,30.5-65.5,67.1-65.1c36.5,0.4,66.4,30.2,65.9,65.7
	C272.9,513.7,243.3,542.4,206.6,542.2z M206.8,522.8c26,0.1,46.9-20.3,46.9-45.7c0-25.2-21.2-46-46.9-45.9
	c-25.5,0.1-46.3,20.5-46.6,45.6C159.9,502.1,180.8,522.8,206.8,522.8z"/>
<path class="st1" d="M206.8,522.8c-25.9-0.1-46.8-20.7-46.6-46c0.3-25.1,21.1-45.5,46.6-45.6c25.7-0.1,46.9,20.7,46.9,45.9
	C253.7,502.5,232.7,522.9,206.8,522.8z"/>
</svg>
