<?xml version="1.0" encoding="utf-8"?>
<!-- Generator: Adobe Illustrator 24.0.0, SVG Export Plug-In . SVG Version: 6.00 Build 0)  -->
<svg version="1.1" id="Calque_1" xmlns="http://www.w3.org/2000/svg" xmlns:xlink="http://www.w3.org/1999/xlink" x="0px" y="0px"
	 viewBox="0 0 639 634.5" style="enable-background:new 0 0 639 634.5;" xml:space="preserve">
<style type="text/css">
	.st0{stroke:#000000;stroke-width:9;stroke-miterlimit:10;}
	.st1{fill:#FFFFFF;}
	.st2{fill:#FFFFFF;stroke:#000000;stroke-width:9;stroke-miterlimit:10;}
</style>
<path d="M324.2,0c6.3,3.5,8.2,8.2,7.9,14.2c-0.5,9.8,0,19.6-0.2,29.5c-0.1,7-5.4,11.6-12.8,11.4c-7.1-0.2-11.9-4.6-12-11.4
	c-0.1-9.8,0.3-19.7-0.2-29.5c-0.3-6,1.6-10.8,7.9-14.2C317.9,0,321,0,324.2,0z"/>
<path class="st0" d="M200.8,334.3c8.8,3.3,16.9,5.8,24.4,9.2c5.5,2.5,9.8,2.6,15.6,0.1c8.3-3.6,17.4-6.4,26.4-8.6
	c5.1-1.3,7.6-3.3,8.9-7.2c1.6-4.7,3.6-9.4,5.9-14c3.5-7.2,10.3-11.2,20.2-11.3c11.4-0.2,22.7-0.1,34.1,0
	c10.2,0.1,18.6,3.9,20.4,11.6c3.4,14.9,14.9,21,31.8,26.4c13.7,4.4,23.7,4.8,36-1.2c12.7-6.2,21.3-4.6,31.9,3.8
	c6.6,5.2,13.3,10.4,19.7,15.7c8.6,7,11.1,14.3,4.5,22.3c-9.4,11.3-7.8,20.8-1.4,33c6.4,12.2,14,19.3,30.2,22
	c11.2,1.8,16.3,8.6,16.5,17.8c0.1,8.4,0.1,16.8,0,25.2c-0.2,8.5-5.1,15.3-15.6,17c-17.6,2.8-25.5,10.9-32,23.8
	c-5.7,11.4-7,19.8,1.4,30.2c7.6,9.3,5.3,16.3-4.6,24.3c-6.7,5.4-13.4,10.8-20.3,16.1c-8.9,6.8-18,8.8-28.1,3.5
	c-13.9-7.2-26.8-8.8-40.6-0.7c-1.8,1.1-4.2,1.8-6.4,2c-12.7,1.3-17.2,7.9-20.3,16.9c-5.2,15.1-10.9,17.9-30.5,17.9
	c-8.5,0-17.1,0.1-25.6,0c-10.8-0.2-19.3-4.1-21.5-12.4c-3.6-13.8-13.6-20.2-30-25.4c-14.8-4.7-25.6-5.1-38.8,1.4
	c-11.2,5.5-20,3.9-29.4-3.4c-7.2-5.6-14.4-11.2-21.4-17c-8.2-6.8-10.5-14.1-4-21.8c9.4-11.3,10.7-21.7,0.7-32.8
	c-1.3-1.4-2.2-3.4-2.5-5.1c-1.5-9.6-9.6-12.9-20.3-15.3c-20-4.4-23.2-8.5-23.2-25c0-6.6-0.1-13.1,0-19.7c0.2-8.5,5.1-15.5,15.4-17.1
	c17.6-2.8,25.5-10.7,32.1-23.7c6-11.7,6.6-20.3-1.8-30.8c-7-8.8-4.8-15.9,4.3-23.3c7.1-5.7,13.9-11.7,21.5-16.8
	C189.1,338.6,195,336.9,200.8,334.3z M458.2,559.3c-3.2-5-6-9.8-9.3-14.4c-5-7.1-4.7-13.7,0.1-21c4.8-7.2,9.5-14.7,12.1-22.5
	c3.6-10.7,10.8-17.3,24.6-19.4c2.8-0.4,5.3-1.7,8.1-2c6-0.8,7.9-3.3,7.4-8c-0.7-5.7,2.1-12.9-1.3-16.7c-3.4-3.8-12.7-4.4-19.6-6.1
	c-9.2-2.3-14.7-6.9-17.5-14.2c-2.5-6.6-4.6-13.8-9.4-19.4c-10.8-12.7-9.8-24.4,0.9-36.3c0.4-0.5,0.6-1.1,1.1-1.6
	c3.3-3.5,2.3-6.1-1.8-8.9c-5.7-3.8-10.4-10.4-16.5-11.4c-5.7-0.9-12.9,4-19.3,6.6c-8.5,3.5-16.6,3.3-25.1-0.4
	c-7.4-3.2-15.1-7.1-23.2-8.3c-19.6-2.9-29.3-12.3-32.7-27c0-0.2-0.2-0.4-0.2-0.6c-0.7-4.5-3.8-6-9.5-5.6c-7.4,0.5-16.6-1.6-21.9,1.2
	c-4.8,2.6-5.4,10.1-7.6,15.5c-2.8,7-8.5,11.1-17.4,13.6c-11.7,3.2-23.1,7-34.2,11.3c-8.6,3.3-16.6,3.9-25.1,0.2
	c-5.2-2.3-10.5-4.5-15.9-6.3c-1.7-0.6-4.8-0.4-6,0.5c-6.2,4.6-14.5,8.9-17,14.7c-1.7,3.9,5.1,10.1,8.1,15.2c0.2,0.4,0.4,0.8,0.7,1.1
	c4.1,6.1,3.4,12-0.3,18.2c-5.4,9.3-10.5,18.7-14.8,28.3c-3,6.8-8.1,11.2-16.6,13.4c-3.9,1-7.8,2.3-11.8,2.9
	c-7.6,1.1-10.9,4-9.7,10.4c0.9,5-1.9,11.6,1.2,14.9c3.4,3.5,11.7,4.4,18,5.8c10.5,2.3,16.4,7.5,19.7,15.7
	c3.6,8.7,8.1,17.3,13.3,25.4c4.6,7.3,5.1,13.9,0,21c-1.9,2.7-3.2,5.7-5.4,8.1c-4.3,4.7-3.1,7.9,2.2,11.9c15,11.2,14.9,11.7,32.8,4.1
	c10-4.2,18.8-3.8,28.6,0.4c8.6,3.7,17.6,7.1,27,9c13.5,2.8,21.8,8.7,24.5,19.6c0.5,2.2,2.2,4.2,2.6,6.4c0.9,4.7,3.9,6.4,10,5.9
	c7.2-0.5,16.2,1.7,21.1-1.1c4.8-2.7,5.7-10,7.8-15.4c2.8-7.3,8.7-11.5,17.8-14.1c11.6-3.3,23.1-7,34.2-11.2
	c8.4-3.2,16.1-3.6,24.4-0.3c6.8,2.7,14.6,7.5,20.7,6.5c6.4-1,11.3-7.9,16.7-12.2C456.1,561.6,457.1,560.4,458.2,559.3z"/>
<path class="st0" d="M372.7,212.4c15.8,10,19.9,20.1,13.6,30.7c-0.4,0.7-0.8,1.7-1.5,2.1c-10.8,6.3-14.1,15.4-17.7,25.1
	c-3.5,9.4-14.8,13.2-27.1,13.5c-13.4,0.2-26.9,0.3-40.3,0c-18.9-0.4-30.5-9.8-31.4-24.8c-0.1-1.9-1.3-4.7-3.1-5.4
	c-17.8-7-22.2-29-1.2-39.5c0.4-0.2,0.6-0.6,1.5-1.5c-2.4-2.8-4.8-6-7.6-8.8c-4-4-8.3-7.8-12.7-11.6C199,152.6,223.8,82.3,297,68.4
	c35.7-6.8,67.5,0.7,92.8,21.8c25.9,21.6,33.1,47.5,23,76.3c-4,11.3-13,20.3-22.5,29.1C384.4,200.9,378.8,206.5,372.7,212.4z
	 M331.9,210.9c4.7,0,8.6,0.2,12.4-0.1c1.7-0.1,4.3-1.1,4.7-2.1c5-11.9,16.1-20.4,26.1-29.4c14.5-13,19.4-28,16-45
	c-6.2-30.9-43.5-52.7-82.3-47.8c-39.7,5-67.1,34.3-61.5,65.3c2.1,11.5,8.9,20.8,18.3,29.2c9.4,8.4,19.4,16.5,24.2,27.5
	c0.5,1.1,2.8,2.3,4.4,2.5c4,0.4,8.1,0.1,12.9,0.1c0-4.7,0-8.8,0-12.8c-0.1-9.2,2.5-19.2-1.2-27.4c-3.2-7-13.7-11.9-20.8-17.8
	c-5.8-4.8-6.1-10.7-0.9-14.7c5.3-4.1,12.2-3.9,18.5,1c5.5,4.2,10.7,8.8,17.1,14.1c6.1-5.2,11.2-9.9,16.7-14.1
	c6.2-4.9,13.2-5.1,18.5-0.9c5.1,4,4.8,9.9-1.1,14.7c-6.1,5-12.5,9.8-18.5,14.9c-1.6,1.4-3.2,3.4-3.2,5.1
	C331.8,185.4,331.9,197.6,331.9,210.9z M319.5,236.3c12.6,0,25.3,0.1,37.9-0.1c2.2,0,4.4-1.7,6.6-2.7c-2.2-1-4.5-2.8-6.7-2.8
	c-25.3-0.2-50.6-0.2-75.9,0c-2.2,0-4.4,1.8-6.6,2.8c2.2,0.9,4.4,2.6,6.7,2.6C294.2,236.5,306.9,236.3,319.5,236.3z M345.4,256.4
	c-17.8,0-34.9,0-52,0c0,6.8,0.9,7.7,8.4,7.8c11.8,0.1,23.7,0,35.6,0C344.2,264.3,346.9,261.8,345.4,256.4z"/>
<path class="st0" d="M124.3,263.3c0,3.1,0,5.5,0,7.9c0,44.1,0,88.1,0,132.2c0,14.5-6.4,19.6-24.7,19.6c-9.3,0-18.6,0.1-27.9,0
	c-15.7-0.1-22.7-5.6-22.7-18.1c-0.1-44.7,0-89.3,0-134c0-2.2,0-4.4,0-7.6c-7.7,0-14.8,0-21.9,0c-9.8,0.1-17.1-3-20.9-10.3
	c-3.7-7.1-0.9-13.2,5.7-18.4c19.6-15.5,39-31,58.7-46.5c10.4-8.2,21.7-8.3,32-0.2c19.8,15.6,39.5,31.3,59.2,46.9
	c6.7,5.3,9.1,11.5,5.3,18.5c-3.8,6.9-10.9,10.1-20.4,10C139.5,263.3,132.3,263.3,124.3,263.3z M134.9,243.6
	c-16.5-13.2-32.9-26.3-47.7-38.1C71.3,218.1,55,231,38.9,243.6c1.2,0,3.5,0.1,5.7,0c23-1.4,29.6,7.9,29.3,23.4
	c-0.6,42.8-0.2,85.6-0.2,128.4c0,2.4,0,4.8,0,7.3c9.1,0,17.1,0,25.7,0c0-3,0-5.4,0-7.8c0-43.2,0-86.4,0-129.6c0-2-0.1-4.1,0.2-6.1
	c1.3-9.4,9.1-15.2,21.1-15.5C125.6,243.5,130.5,243.6,134.9,243.6z"/>
<path class="st0" d="M514.7,263.3c-8,0-14.9-0.1-21.8,0c-9.8,0.1-17.2-3-21-10.2c-3.7-7.1-1.1-13.2,5.6-18.5
	c19.7-15.6,39.4-31.3,59.2-46.9c10-7.8,21.4-7.8,31.4,0.1c19.8,15.6,39.5,31.3,59.2,46.9c6.7,5.3,9.2,11.4,5.4,18.5
	c-3.7,6.9-10.8,10.1-20.3,10.1c-7.2,0-14.4,0-22.4,0c0,3,0,5.4,0,7.8c0,44.1,0,88.1,0,132.2c0,14.6-6.4,19.7-24.6,19.7
	c-9.3,0-18.6,0.1-27.9,0c-15.7-0.1-22.8-5.6-22.8-18c-0.1-44.5,0-88.9,0-133.4C514.7,269.1,514.7,266.7,514.7,263.3z M565.2,402.9
	c0-3.2,0-5.6,0-8c0-43,0-86,0-129c0-2.3-0.1-4.5,0.2-6.7c1.3-9.4,9.1-15.2,21-15.5c5-0.1,10,0,15.5,0
	c-17.2-13.6-33.6-26.5-48.6-38.4c-16.2,12.6-32.7,25.5-49.2,38.4c2.2,0,4.9,0,7.7,0c21,0,27.6,5.3,27.6,22.2c0,43.2,0,86.4,0,129.6
	c0,2.4,0,4.8,0,7.5C548.3,402.9,556.2,402.9,565.2,402.9z"/>
<path d="M173.2,153.4c-6.7,0-13.4,0.1-20.1,0c-9.1-0.2-14.7-4.1-14.5-10c0.1-5.7,5.4-9.5,14.2-9.6c13.7-0.1,27.4-0.1,41.1,0
	c8.8,0.1,13.9,3.8,14.1,9.6c0.1,6-5.3,9.7-14.4,10c-0.5,0-1,0-1.6,0C185.6,153.4,179.4,153.4,173.2,153.4z"/>
<path d="M466.2,133.7c7,0,14-0.2,20.9,0c8.1,0.2,13.2,4.1,13.2,9.7c0,5.3-4.8,9.6-12.3,9.8c-15,0.3-30,0.3-44.9,0
	c-7.5-0.2-12.1-4.5-12-10c0.2-5.4,4.9-9.2,12.6-9.4C451.3,133.6,458.8,133.8,466.2,133.7C466.2,133.8,466.2,133.8,466.2,133.7z"/>
<path d="M233,85c-4.4-1.9-8-2.8-10.4-4.6c-10.3-7.8-20.3-15.8-30.2-23.9c-5.8-4.7-6-10.1-1.1-14.2c5-4.2,12.5-4.1,18.5,0.5
	c10.2,7.9,20.6,15.6,29.9,24c2.8,2.5,3.9,7.7,2.9,11C241.8,80.6,236.6,82.5,233,85z"/>
<path d="M440.2,38.3c3.1,2,7.8,3.7,9.1,6.3c1.4,2.9,1.3,8-1.1,10.1c-10.7,9.4-22.1,18.4-33.8,27c-5,3.7-11.3,2.9-16-1
	c-4.7-3.9-5.2-8.9-0.6-12.8c10.8-9.1,22.1-17.8,33.4-26.5C433,40,436.2,39.6,440.2,38.3z"/>
<path class="st1" d="M458.2,559.3c-1.2,1.1-2.1,2.3-3.4,3.3c-5.5,4.3-10.4,11.2-16.7,12.2c-6.1,1-13.9-3.8-20.7-6.5
	c-8.3-3.3-16-2.9-24.4,0.3c-11.1,4.2-22.6,8-34.2,11.2c-9,2.5-15,6.8-17.8,14.1c-2.1,5.4-3,12.8-7.8,15.4c-4.9,2.7-14,0.5-21.1,1.1
	c-6.1,0.5-9.1-1.2-10-5.9c-0.4-2.2-2-4.2-2.6-6.4c-2.7-10.9-11-16.8-24.5-19.6c-9.4-2-18.4-5.3-27-9c-9.8-4.2-18.6-4.6-28.6-0.4
	c-17.9,7.6-17.8,7.1-32.8-4.1c-5.3-4-6.4-7.2-2.2-11.9c2.2-2.5,3.5-5.5,5.4-8.1c5.1-7,4.6-13.7,0-21c-5.2-8.2-9.7-16.7-13.3-25.4
	c-3.4-8.2-9.3-13.3-19.7-15.7c-6.4-1.4-14.7-2.2-18-5.8c-3.2-3.3-0.3-9.9-1.2-14.9c-1.1-6.4,2.1-9.3,9.7-10.4
	c4-0.6,7.9-1.9,11.8-2.9c8.5-2.1,13.6-6.6,16.6-13.4c4.3-9.6,9.4-19,14.8-28.3c3.6-6.2,4.3-12.1,0.3-18.2c-0.2-0.4-0.4-0.7-0.7-1.1
	c-3-5.2-9.7-11.3-8.1-15.2c2.5-5.8,10.8-10,17-14.7c1.2-0.9,4.3-1,6-0.5c5.5,1.8,10.7,4,15.9,6.3c8.5,3.7,16.5,3.1,25.1-0.2
	c11.1-4.2,22.6-8.1,34.2-11.3c8.9-2.4,14.6-6.5,17.4-13.6c2.2-5.4,2.8-13,7.6-15.5c5.2-2.8,14.4-0.7,21.9-1.2
	c5.7-0.4,8.8,1.2,9.5,5.6c0,0.2,0.2,0.4,0.2,0.6c3.4,14.7,13.1,24.1,32.7,27c8.1,1.2,15.8,5,23.2,8.3c8.5,3.7,16.5,3.9,25.1,0.4
	c6.4-2.6,13.6-7.5,19.3-6.6c6.2,0.9,10.9,7.6,16.5,11.4c4.1,2.7,5.1,5.4,1.8,8.9c-0.5,0.5-0.7,1.1-1.1,1.6
	c-10.7,12-11.7,23.7-0.9,36.3c4.8,5.6,6.9,12.8,9.4,19.4c2.8,7.3,8.4,12,17.5,14.2c6.8,1.7,16.1,2.3,19.6,6.1
	c3.5,3.9,0.7,11.1,1.3,16.7c0.5,4.7-1.4,7.2-7.4,8c-2.8,0.4-5.3,1.6-8.1,2c-13.8,2.1-21,8.7-24.6,19.4c-2.6,7.8-7.3,15.3-12.1,22.5
	c-4.8,7.2-5.2,13.9-0.1,21C452.3,549.5,455.1,554.3,458.2,559.3z M319.4,370.1c-67.1,0-121.1,43-121.1,96.2
	c0.1,52.8,54.3,95.8,120.8,95.9c66.9,0.1,121.4-43,121.5-96C440.7,413,386.5,370.1,319.4,370.1z"/>
<path class="st1" d="M331.9,210.9c0-13.3-0.1-25.5,0.1-37.8c0-1.7,1.6-3.8,3.2-5.1c6-5.1,12.4-9.9,18.5-14.9
	c5.9-4.8,6.2-10.7,1.1-14.7c-5.3-4.2-12.3-4-18.5,0.9c-5.5,4.3-10.5,8.9-16.7,14.1c-6.4-5.3-11.6-9.8-17.1-14.1
	c-6.3-4.9-13.2-5.1-18.5-1c-5.2,4-4.9,9.9,0.9,14.7c7.1,5.9,17.7,10.8,20.8,17.8c3.7,8.2,1.1,18.2,1.2,27.4c0,4.1,0,8.1,0,12.8
	c-4.8,0-8.8,0.2-12.9-0.1c-1.6-0.1-3.9-1.3-4.4-2.5c-4.8-11-14.7-19.1-24.2-27.5c-9.5-8.4-16.3-17.7-18.3-29.2
	c-5.6-31,21.8-60.3,61.5-65.3c38.8-4.8,76.1,16.9,82.3,47.8c3.4,17-1.4,32-16,45c-10.1,9-21.1,17.5-26.1,29.4c-0.4,1-3,2-4.7,2.1
	C340.5,211.1,336.7,210.9,331.9,210.9z"/>
<path class="st1" d="M319.5,236.3c-12.6,0-25.3,0.1-37.9-0.1c-2.3,0-4.5-1.7-6.7-2.6c2.2-1,4.4-2.8,6.6-2.8
	c25.3-0.2,50.6-0.2,75.9,0c2.2,0,4.5,1.8,6.7,2.8c-2.2,0.9-4.4,2.6-6.6,2.7C344.8,236.5,332.2,236.3,319.5,236.3z"/>
<path class="st1" d="M345.4,256.4c1.4,5.4-1.2,7.9-8,7.9c-11.8-0.1-23.7,0.1-35.6,0c-7.5-0.1-8.5-1-8.4-7.8
	C310.5,256.4,327.7,256.4,345.4,256.4z"/>
<path class="st1" d="M134.9,243.6c-4.4,0-9.2-0.1-14.1,0c-11.9,0.3-19.8,6.1-21.1,15.5c-0.3,2-0.2,4.1-0.2,6.1
	c0,43.2,0,86.4,0,129.6c0,2.4,0,4.9,0,7.8c-8.6,0-16.6,0-25.7,0c0-2.6,0-4.9,0-7.3c0-42.8-0.4-85.6,0.2-128.4
	c0.2-15.5-6.4-24.8-29.3-23.4c-2.2,0.1-4.5,0-5.7,0C55,231,71.3,218.1,87.2,205.6C102,217.4,118.4,230.5,134.9,243.6z"/>
<path class="st1" d="M565.2,402.9c-9,0-16.9,0-25.7,0c0-2.7,0-5.1,0-7.5c0-43.2,0-86.4,0-129.6c0-16.9-6.6-22.1-27.6-22.2
	c-2.8,0-5.6,0-7.7,0c16.5-12.9,33-25.8,49.2-38.4c15.1,11.9,31.4,24.8,48.6,38.4c-5.5,0-10.5-0.1-15.5,0c-12,0.3-19.8,6-21,15.5
	c-0.3,2.2-0.2,4.5-0.2,6.7c0,43,0,86,0,129C565.2,397.3,565.2,399.7,565.2,402.9z"/>
<path class="st0" d="M319.4,370.1c67.1,0,121.2,42.9,121.2,96.1c0,53-54.5,96.1-121.5,96c-66.5-0.1-120.7-43.1-120.8-95.9
	C198.3,413.1,252.3,370.2,319.4,370.1z M267.1,481.6c-16.4-25.6-12.2-49.3,12.5-65.7c21.9-14.5,53.9-15.2,76.9-1.7
	c11.6,6.8,19.5,15.8,23.2,26.9c4.9,14.8,1.6,28.8-8,40.4c10.4,8.5,20.1,16.5,29.7,24.4c25.7-30.8,16.9-74-20.7-98.7
	c-37.5-24.7-92.3-23.1-128,3.9c-37.7,28.6-36,71.5-15.1,94.6C247.3,497.8,257.1,489.9,267.1,481.6z M319.3,542.6
	c21.6-0.3,41-5.4,58.4-15.6c3.6-2.1,4.1-4,2.4-7.2c-4.9-9-12.4-16.2-23.6-20.3c-3.2-1.2-8-1.2-11.2-0.1c-15.6,4.9-31.7,6.6-46.7,1
	c-11.3-4.2-19-1.2-26,4.4c-5.4,4.2-9.2,9.7-13.5,14.8c-2.6,3.1-1.4,5.4,2.5,7.6C278.8,537.2,298,542.3,319.3,542.6z M357,454.6
	c0.2-16.6-15.9-30-36.6-30.2c-21.3-0.3-38.3,12.6-38.5,29.3c-0.2,16.9,16.2,30.2,37.3,30.3C340.1,484,356.8,471,357,454.6z"/>
<path class="st1" d="M267.1,481.6c-10.1,8.2-19.8,16.2-29.5,24c-20.9-23.1-22.6-65.9,15.1-94.6c35.7-27.1,90.5-28.7,128-3.9
	c37.5,24.8,46.3,68,20.7,98.7c-9.6-7.9-19.3-15.9-29.7-24.4c9.6-11.6,12.9-25.6,8-40.4c-3.7-11.1-11.6-20-23.2-26.9
	c-23-13.5-55-12.8-76.9,1.7C255,432.3,250.7,456,267.1,481.6z"/>
<path class="st1" d="M319.3,542.6c-21.3-0.3-40.5-5.4-57.8-15.4c-3.9-2.3-5.2-4.5-2.5-7.6c4.3-5,8.2-10.5,13.5-14.8
	c7.1-5.6,14.7-8.6,26-4.4c15.1,5.6,31.2,3.9,46.7-1c3.3-1,8.1-1,11.2,0.1c11.2,4.1,18.7,11.3,23.6,20.3c1.7,3.2,1.2,5.1-2.4,7.2
	C360.4,537.3,340.9,542.4,319.3,542.6z"/>
<path class="st2" d="M357,454.6c-0.2,16.5-16.9,29.4-37.8,29.3c-21.1-0.1-37.6-13.4-37.3-30.3c0.2-16.7,17.2-29.6,38.5-29.3
	C341.2,424.6,357.3,437.9,357,454.6z"/>
</svg>
