<?xml version="1.0" encoding="utf-8"?>
<!-- Generator: Adobe Illustrator 24.0.0, SVG Export Plug-In . SVG Version: 6.00 Build 0)  -->
<svg version="1.1" id="Calque_1" xmlns="http://www.w3.org/2000/svg" xmlns:xlink="http://www.w3.org/1999/xlink" x="0px" y="0px"
	 viewBox="0 0 251 251" style="enable-background:new 0 0 251 251;" xml:space="preserve">
<style type="text/css">
	.st0{fill:#FFFFFF;stroke:#000000;stroke-miterlimit:10;}
</style>
<path class="st0" d="M250.5,215.8c0,19.4-15.3,34.7-34.7,34.7H35.2c-19.4,0-34.7-15.3-34.7-34.7V35.2c0-19.4,15.3-34.7,34.7-34.7
	h180.6c19.4,0,34.7,15.3,34.7,34.7V215.8z"/>
<path d="M42.2,90.8h34.7v118.1H42.2V90.8z M59.5,76.9L59.5,76.9c-10.4,0-17.4-7.6-17.4-17.4s6.9-17.4,17.4-17.4s17.4,7.6,17.4,17.4
	S69.9,76.9,59.5,76.9z M208.8,208.8h-34.7v-63.2c0-15.3-8.3-25.7-22.2-25.7c-10.4,0-16,6.9-18.8,13.9c-0.7,2.1-0.7,9-0.7,12.5v62.5
	H97.7V90.8h34.7v18.1c4.9-7.6,13.2-18.1,32.6-18.1c25,0,43.7,16,43.7,50.7V208.8L208.8,208.8z"/>
</svg>
