<?xml version="1.0" encoding="utf-8"?>
<!-- Generator: Adobe Illustrator 24.0.0, SVG Export Plug-In . SVG Version: 6.00 Build 0)  -->
<svg version="1.1" id="Calque_1" xmlns="http://www.w3.org/2000/svg" xmlns:xlink="http://www.w3.org/1999/xlink" x="0px" y="0px"
	 viewBox="0 0 594 657.7" style="enable-background:new 0 0 594 657.7;" xml:space="preserve">
<style type="text/css">
	.st0{stroke:#000000;stroke-width:9;stroke-miterlimit:10;}
	.st1{fill:#FFFFFF;stroke:#000000;stroke-width:9;stroke-miterlimit:10;}
	.st2{fill:#FFFFFF;stroke:#000000;stroke-width:2;stroke-miterlimit:10;}
</style>
<path class="st0" d="M10.9,653.2c-4.3-3.1-7.9-6.7-5.7-12.6c2.1-5.8,7-6.6,12.5-6.4c6.1,0.2,12.2,0,19.3,0c0-7.2,0-14.1,0-21
	c0.1-5.7-0.1-11.4,0.4-17.1c1.4-14.5,13.2-27.4,27.6-27.8c29-0.8,57.9-0.3,86.9-0.1c2.7,0,5.4,1.1,8.8,1.8c0-8.4,0-16.5,0-24.6
	c0.1-21,13.3-34.3,34.4-34.6c7.8-0.1,15.7-0.2,23.5,0c3.6,0.1,5.7-0.9,7.3-4.4c12.8-27.3,25.9-54.5,38.8-81.8c1.1-2.4,1.8-5.2,2-7.9
	c1.2-22.1,2.1-44.3,3.4-66.4c0.3-5.4,1.2-10.9,2.6-16.2c3.9-14.5,8.1-28.8,12.3-43.2c2-6.9,6.4-9.9,11.9-8.4
	c5.9,1.6,8.2,6.5,6.3,13.6c-2.6,9.7-5.4,19.4-8.5,30.4c14.7-6,28.3-11.5,41.7-17.2c1.3-0.5,2.3-2.4,2.8-3.9
	c4.8-14.4,9.6-28.8,14.5-43.6c-0.9-0.2-1.6-0.5-2.3-0.4c-5,0.2-8.8-1.8-10.3-6.7c-1.5-5.1,0.6-8.9,5.2-11.7
	c23.7-14.3,47.3-28.7,71-43.1c6.3-3.8,12.8-7.5,18.8-11.7c10.2-7.1,16-16.9,17.1-30.5c-2.8,1.4-4.6,2.3-6.4,3.3
	c-37.3,20.2-74.6,40.6-112,60.6c-7.9,4.2-12.8,10-15.3,18.3c-1.6,5.2-3.2,10.5-4.8,15.7c-2.2,7.4-6.4,10.3-12.2,8.7
	c-5.8-1.6-8.2-6.6-6-13.6c3.5-11,7.3-21.9,11.2-33.5c-10.8-9-15.9-23.1-21.5-36.5c-2.3-5.6-1.4-13.3-0.1-19.6
	c3-14.7,30.6-28.5,45.1-23.3c8.2,2.9,14.5,7.8,18.5,15.4c5.1,9.9,10,19.9,15.3,30.5c8.7-4.7,17.9-9.6,27.1-14.6
	c14.7-7.9,29.2-16.1,44.1-23.8c4.3-2.2,6-4.7,5.9-9.7c-0.2-38.2-0.1-76.4-0.1-114.7c0-1.3,0-2.5,0-3.8c0.1-8.2,3.1-12.5,9.1-12.8
	c5.9-0.3,9,3.4,10,11.9c0.1,0.6,0.4,1.2,0.9,2.4c2.3,0,4.8,0,7.3,0c33.6,0,67.3,0,100.9,0c1.9,0,3.8-0.1,5.7,0.1
	c6.3,0.4,10.9,3.2,13,9.3c2.1,5.9,0.3,10.9-4.1,14.9c-7.8,7.1-15.8,14-23.8,21c-1.1,1-2.3,1.8-3.8,3c8.8,7.7,17,15,25.3,22.2
	c6.9,6.1,8.8,11.3,6.2,17.6c-3,7.1-8.9,8.8-16,8.8c-34.5-0.1-69,0-103.5,0c-2.5,0-5,0-8.2,0c0,5.1-0.2,9.5,0.1,13.8
	c0.1,1.4,1.9,2.7,3,4c2.3,3,6,5.6,6.8,8.9c4,15.7,1,30.5-7.2,44.4c-1.4,2.4-2.7,5.4-2.7,8.1c-0.2,52.4-0.1,104.7-0.1,157.1
	c0,1.2,0.2,2.5,0.3,4.2c2.2,0.1,4.2,0.4,6.2,0.4c14.6,0,29.3,0.8,43.8-0.2c24-1.7,40.6,12.8,40.1,40.2
	c-1.1,57.2-0.3,114.4-0.3,171.7c0,19.4,0,38.9,0,58.3c0,2.3,0,4.6,0,7.6c7.3,0,14,0.1,20.7,0c5.3-0.1,10.4,0.2,12.8,5.9
	c2.3,5.6-1,9.5-4.8,13.1C390,653.2,200.4,653.2,10.9,653.2z M303.4,633.7c35.4,0,69.9,0,104.8,0c0-18.8-0.1-37.2,0-55.5
	c0-6.4,3.9-10.4,9.5-10.4c5.6,0,9.4,4,9.5,10.4c0.1,11.8,0,23.6,0.1,35.5c0,6.7,0,13.4,0,20.2c35.2,0,69.5,0,104.2,0
	c0.1-1.9,0.4-3.6,0.4-5.2c0-79,0-157.9,0-236.8c0-11.4-4.8-16.1-16.3-16.1c-23.5,0-47,0-70.4,0c-13.5,0-17.8,4.3-17.8,17.8
	c0,44.5,0,89.1,0,133.6c0,7.5-3.5,11.8-9.3,12c-6,0.2-9.7-4.3-9.8-12.1c0-13.3,0-26.6,0-39.9c0-14.3-4.3-18.6-18.4-18.6
	c-22.6,0-45.3,0-67.9,0c-14.2,0-18.5,4.2-18.5,18.6c0,46.6,0,93.3,0,140C303.4,629.2,303.4,631.5,303.4,633.7z M283.8,633.9
	c0.2-1.1,0.5-1.9,0.5-2.7c0-29.1,0.2-58.2,0-87.3c-0.1-9.5-5.4-14.1-15.7-14.1c-24.3-0.1-48.6-0.1-72.9,0c-11.3,0.1-16,5-16,16.4
	c0,27.4,0,54.8,0,82.2c0,1.8,0.2,3.6,0.4,5.4C215,633.9,249.3,633.9,283.8,633.9z M441.4,207.8c-20.9,12.7-40.8,24.6-60.5,36.8
	c-1.4,0.9-2.4,2.9-3,4.6c-6.8,20.2-13.6,40.3-20,60.6c-0.7,2.2,0.1,5.9,1.6,7.7c10.8,13.3,21.7,26.5,33,39.3
	c10.2,11.5,14.1,24.1,11.3,39.6c-3.1,17.4-4.5,35-6.7,53c3.8,0.9,7.2,1.6,11,2.5c0-21.3-0.1-42,0-62.6c0.1-16.6,11.8-29.8,28.3-32.3
	c1.6-0.2,3.2-0.5,4.9-0.7C441.4,306.9,441.4,258,441.4,207.8z M560.4,38.9c-1.3-0.5-1.9-0.9-2.4-0.9c-31.1,0-62.1,0-93.2-0.1
	c-4.2,0-4.1,2.4-4.1,5.4c0,14.8,0,29.5,0,44.3c0,2.9,0,5.8,0,8.8c33.6,0,66.3,0,99.3,0c-0.5-0.9-0.6-1.4-0.9-1.6
	c-5.4-4.8-10.7-9.5-16.1-14.3c-10.6-9.4-10.5-16.6,0.2-26.1C548.8,49.2,554.4,44.2,560.4,38.9z M160.7,633.9c0-10.8,0.1-21.3,0-31.8
	c-0.1-10.1-5-15.1-15.3-15.2c-9.7-0.1-19.4,0-29.1,0c-15.2,0-30.4-0.1-45.6,0.1c-8.3,0.1-13.9,4.2-14.2,11.4
	c-0.5,11.7-0.1,23.5-0.1,35.6C91,633.9,125.3,633.9,160.7,633.9z M245.4,509.6c0.5,0.6,1,1.1,1.6,1.7c2.1-1.6,4.8-2.8,6.3-4.9
	c19.6-25.7,39.1-51.4,58.3-77.4c3-4.1,5.3-9.2,6.3-14.2c3.4-16.5,6.2-33.1,9.2-49.7c2-10.8,3.9-21.7,6.1-33.6
	c-13.9,5.7-26.5,11-39.2,16c-3.7,1.4-5,3.3-5.2,7.3c-0.9,20.4-1.7,40.9-3.4,61.3c-0.5,6.8-2.4,13.7-5.2,19.9
	c-8.7,19.4-18.1,38.5-27.2,57.8C250.5,499.1,248,504.4,245.4,509.6z M351.6,337.3c-1.8,9.9-2.7,18.2-4.9,26.2
	c-2,7-0.7,11.4,6.2,14.5c9.5,4.2,13,12.2,13.7,22.3c1.1,15.7,3.1,31.4,4.7,47.1c0.1,0.6,0.5,1.1,0.8,1.9c1.8-0.1,3.6-0.2,5.9-0.3
	c2.7-21.8,5.4-43.3,7.8-64.8c0.3-2.3-0.6-5.3-2-7.1C373.5,364.2,363,351.4,351.6,337.3z M344.6,187.7c0-0.3,0-1.2-0.3-1.9
	c-4.4-8.6-8.4-17.4-13.3-25.7c-2.8-4.7-8-5-13-3.1c-2.7,1.1-5.3,2.5-7.9,4c-7,3.9-8.7,9.2-5.2,16.4c3.1,6.4,6.5,12.7,9.7,19.1
	c2.8,5.6,7.2,8.2,13.4,6.9c9.2-2,16.3-8.3,16.7-14.4C344.6,188.7,344.6,188.5,344.6,187.7z M343.2,393.3c-0.7,0.3-1.3,0.5-2,0.8
	c-3.8,19.2-4,39.7-21.4,54.8c12.1,0,22.1,0,32.3,0c-1.6-16.6-3.1-32.8-4.9-48.9C346.8,397.7,344.6,395.5,343.2,393.3z M283.7,512.8
	c0-4.8,0-9.1,0-14.9c-3.6,4.9-6.3,8.6-9.4,12.8C278,511.5,280.7,512.1,283.7,512.8z"/>
<path class="st1" d="M303.4,633.7c0-2.2,0-4.5,0-6.8c0-46.6,0-93.3,0-140c0-14.3,4.3-18.5,18.5-18.6c22.6,0,45.3,0,67.9,0
	c14.1,0,18.4,4.4,18.4,18.6c0,13.3,0,26.6,0,39.9c0,7.8,3.7,12.3,9.8,12.1c5.8-0.2,9.3-4.5,9.3-12c0-44.5,0-89.1,0-133.6
	c0-13.5,4.3-17.8,17.8-17.8c23.5,0,47,0,70.4,0c11.5,0,16.3,4.7,16.3,16.1c0,79,0,157.9,0,236.8c0,1.6-0.2,3.3-0.4,5.2
	c-34.7,0-69.1,0-104.2,0c0-6.8,0-13.5,0-20.2c0-11.8,0.1-23.6-0.1-35.5c-0.1-6.4-3.9-10.4-9.5-10.4c-5.6,0-9.4,3.9-9.5,10.4
	c-0.1,18.4,0,36.7,0,55.5C373.3,633.7,338.8,633.7,303.4,633.7z"/>
<path class="st1" d="M283.8,633.9c-34.5,0-68.9,0-103.8,0c-0.1-1.8-0.3-3.6-0.4-5.4c0-27.4,0-54.8,0-82.2c0-11.4,4.7-16.4,16-16.4
	c24.3-0.1,48.6-0.1,72.9,0c10.3,0,15.6,4.6,15.7,14.1c0.2,29.1,0.1,58.2,0,87.3C284.3,632,284,632.8,283.8,633.9z"/>
<path class="st1" d="M441.4,207.8c0,50.2,0,99.1,0,148.4c-1.7,0.3-3.3,0.5-4.9,0.7c-16.5,2.5-28.1,15.6-28.3,32.3
	c-0.2,20.7,0,41.3,0,62.6c-3.8-0.9-7.2-1.6-11-2.5c2.2-17.9,3.6-35.6,6.7-53c2.8-15.5-1.1-28.1-11.3-39.6
	c-11.3-12.8-22.2-26-33-39.3c-1.5-1.8-2.3-5.5-1.6-7.7c6.4-20.3,13.2-40.5,20-60.6c0.6-1.7,1.5-3.7,3-4.6
	C400.7,232.4,420.5,220.4,441.4,207.8z"/>
<path class="st1" d="M560.4,38.9c-6,5.3-11.6,10.3-17.2,15.3c-10.7,9.5-10.7,16.8-0.2,26.1c5.4,4.8,10.7,9.5,16.1,14.3
	c0.3,0.3,0.4,0.7,0.9,1.6c-33,0-65.7,0-99.3,0c0-3,0-5.9,0-8.8c0-14.8,0-29.5,0-44.3c0-2.9,0-5.4,4.1-5.4
	c31.1,0.1,62.1,0.1,93.2,0.1C558.5,37.9,559.1,38.3,560.4,38.9z"/>
<path class="st1" d="M160.7,633.9c-35.3,0-69.7,0-104.4,0c0-12.1-0.4-23.9,0.1-35.6c0.3-7.2,5.9-11.3,14.2-11.4
	c15.2-0.2,30.4-0.1,45.6-0.1c9.7,0,19.4-0.1,29.1,0c10.3,0.1,15.2,5.1,15.3,15.2C160.7,612.5,160.7,623,160.7,633.9z"/>
<path class="st1" d="M245.4,509.6c2.5-5.3,5-10.5,7.5-15.8c9.1-19.2,18.5-38.3,27.2-57.8c2.8-6.2,4.7-13.2,5.2-19.9
	c1.6-20.4,2.5-40.9,3.4-61.3c0.2-4,1.5-5.9,5.2-7.3c12.8-4.9,25.4-10.3,39.2-16c-2.2,11.9-4.1,22.8-6.1,33.6
	c-3,16.6-5.7,33.2-9.2,49.7c-1,5-3.3,10.1-6.3,14.2c-19.2,26-38.7,51.7-58.3,77.4c-1.5,2-4.2,3.3-6.3,4.9
	C246.5,510.8,246,510.2,245.4,509.6z"/>
<path class="st1" d="M351.6,337.3c11.4,14.1,21.9,26.9,32.1,39.9c1.4,1.8,2.3,4.8,2,7.1c-2.4,21.5-5.1,43-7.8,64.8
	c-2.3,0.1-4.1,0.2-5.9,0.3c-0.4-0.8-0.8-1.4-0.8-1.9c-1.6-15.7-3.6-31.4-4.7-47.1c-0.7-10.1-4.1-18.1-13.7-22.3
	c-6.9-3.1-8.1-7.5-6.2-14.5C348.9,355.5,349.8,347.1,351.6,337.3z"/>
<path class="st2" d="M344.6,187.7c0,0.8,0,1,0,1.2c-0.3,6.1-7.5,12.3-16.7,14.4c-6.2,1.4-10.6-1.3-13.4-6.9
	c-3.2-6.4-6.6-12.7-9.7-19.1c-3.5-7.2-1.8-12.5,5.2-16.4c2.6-1.4,5.2-2.9,7.9-4c5-1.9,10.2-1.6,13,3.1c4.9,8.3,9,17.1,13.3,25.7
	C344.7,186.5,344.6,187.4,344.6,187.7z"/>
<path class="st1" d="M343.2,393.3c1.3,2.2,3.6,4.4,3.9,6.7c1.9,16.1,3.3,32.3,4.9,48.9c-10.2,0-20.2,0-32.3,0
	c17.4-15.1,17.7-35.6,21.4-54.8C341.9,393.8,342.6,393.6,343.2,393.3z"/>
<path class="st1" d="M283.7,512.8c-2.9-0.7-5.7-1.3-9.4-2.2c3.1-4.2,5.7-7.8,9.4-12.8C283.7,503.7,283.7,508,283.7,512.8z"/>
</svg>
