<?xml version="1.0" encoding="utf-8"?>
<!-- Generator: Adobe Illustrator 24.0.0, SVG Export Plug-In . SVG Version: 6.00 Build 0)  -->
<svg version="1.1" id="Layer_1" xmlns="http://www.w3.org/2000/svg" xmlns:xlink="http://www.w3.org/1999/xlink" x="0px" y="0px"
	 viewBox="0 0 499.2 499.2" style="enable-background:new 0 0 499.2 499.2;" xml:space="preserve">
<path d="M344.8,104l79.2,79.2l56-56L400.8,48L344.8,104z M382.4,220.8c-1.6-3.2-0.8-7.2,1.6-9.6l23.2-22.4L338.4,120l-16.8,17.6
	c-1.6,2.4-4.8,2.4-7.2,2.4l-16.8-3.2c-4.8-0.8-9.6,0.8-12.8,4l-14.4,14.4l-9.6,11.2l0,0h4.8c4,0,8,4,8,8v16h24c4,0,8,4,8,8v16h24
	c4,0,8,4,8,8v42.4l21.6,6.4l24.8-24.8c4-4,5.6-11.2,2.4-16.8L382.4,220.8z M177.6,272c0,9.6,6.4,18.4,16,21.6l3.2,0.8
	c3.2,0.8,5.6,4,5.6,8v32h96v-24c0-2.4,1.6-5.6,4-6.4l4-2.4c10.4-7.2,16.8-18.4,16.8-31.2v-40h-16v32h-16v-40v-16h-16v56h-16v-64v-16
	h-16v8v72h-16v-64h-16v64h-16v-27.2l-16,8V272H177.6z M305.6,350.4h-112v16h56v16h-56v72h112v-72h-24v-16h24V350.4z M154.4,104
	l-56-56l-79.2,79.2l56,56 M104.8,31.2l37.6,37.6c32-20,68.8-30.4,107.2-30.4l0,0v16l0,0c-33.6,0-67.2,8.8-96,26.4L172,99.2
	c1.6,1.6,2.4,3.2,2.4,5.6s-0.8,4-2.4,5.6l14.4,13.6l8.8-1.6c12-2.4,24,1.6,32.8,9.6l12,12l10.4,10.4l10.4-10.4l14.4-14.4
	c7.2-7.2,17.6-10.4,27.2-8l12,2.4l13.6-14.4c-2.4-3.2-2.4-8,0-11.2l67.2-67.2c3.2-3.2,8-3.2,11.2,0l90.4,90.4
	c1.6,1.6,2.4,3.2,2.4,5.6c0,2.4-0.8,4-2.4,5.6l-49.6,49.6c12,38.4,13.6,78.4,3.2,117.6l-15.2-4c8.8-32.8,8.8-68-0.8-100.8l-4.8,4.8
	c-1.6,1.6-4,2.4-5.6,2.4c-2.4,0-4-0.8-5.6-2.4l-19.2,18.4l2.4,4c5.6,12,3.2,25.6-5.6,35.2l-28,28c-1.6,1.6-4,2.4-5.6,2.4
	c-0.8,0-1.6,0-2.4,0l-23.2-6.4c-2.4,13.6-10.4,26.4-22.4,34.4l0,0v18.4c4,0,8,4,8,8v120c0,4-4,8-8,8H185.6c-4,0-8-4-8-8v-20.8
	C140,428,108,404,84,372l12.8-9.6c20.8,28,48.8,48.8,80.8,61.6v-81.6c0-4,4-8,8-8V308c-12-4.8-20.8-16-23.2-28l-22.4,7.2
	c-0.8,0-1.6,0-2.4,0c-2.4,0-4-0.8-5.6-2.4L106.4,260c-11.2-11.2-13.6-27.2-7.2-40.8l-18.4-18.4c-1.6,1.6-3.2,2.4-5.6,2.4
	s-4-0.8-5.6-2.4L2.4,133.6c-3.2-3.2-3.2-8,0-11.2l90.4-91.2C96,28.8,101.6,28.8,104.8,31.2z M114.4,225.6c-4,8-2.4,16.8,4,23.2
	l21.6,21.6l21.6-7.2v-24.8c0-3.2,1.6-5.6,4-7.2l28-13.6v-27.2c0-4,4-8,8-8h24v-8c0-4,4-8,8-8h4.8l0,0L216,143.2
	c-4.8-4.8-12-7.2-18.4-5.6L184,140c-2.4,0.8-5.6,0-7.2-2.4L160,120.8l-68,68l22.4,22.4c2.4,2.4,3.2,6.4,1.6,8.8L114.4,225.6z"/>
</svg>
