<?xml version="1.0" encoding="utf-8"?>
<!-- Generator: Adobe Illustrator 22.0.0, SVG Export Plug-In . SVG Version: 6.00 Build 0)  -->
<svg version="1.1" id="Calque_1" xmlns="http://www.w3.org/2000/svg" xmlns:xlink="http://www.w3.org/1999/xlink" x="0px" y="0px"
	 viewBox="0 0 2141.2 2580.7" style="enable-background:new 0 0 2141.2 2580.7;" xml:space="preserve">
<g>
	<g id="Calque_1_2_">
		<g transform="translate(0.000000,2578.000000) scale(0.100000,-0.100000)">
			<path d="M8917,24978.9c-3707-744-3886-781-3911-806c-43-44-5000-6084-4996-6088c2-2,257,62,567,141c310,80,568,144,574,142
				c8-3,24-442,53-1405l42-1401l-269-1532c-148-844-267-1535-265-1537s344-1,760,3c687,7,755,9,750,24c-2,9-167,696-366,1526
				l-361,1510l-26,1508c-23,1322-24,1509-12,1521c13,12,4870,3416,4907,3439c8,5,36-28,83-97c38-58,70-107,70-109
				s-1046-735-2324-1628c-1279-893-2323-1625-2322-1627c2-1,1281,326,2842,728c2365,608,2842,734,2860,753
				c12,12,1184,1291,2604,2842c1421,1551,2594,2832,2608,2848c14,15,24,27,21,26C12804,25758.9,11054,25407.9,8917,24978.9z"/>
			<path d="M9157,21338.9c-756-873-1384-1599-1395-1612c-18-22-235-75-2140-526c-1166-276-2121-503-2122-504
				c-3-3,1008-1670,1023-1687c14-15,11-24-24-80c-193-317-434-807-604-1229c-863-2146-863-4582,0-6730c451-1123,1094-2103,1971-3003
				l105-107h937h938l6,42c8,64,80,891,120,1388c126,1576,212,2901,404,6234c22,379,42,690,44,692s9-96,16-219c6-122,23-422,36-667
				c78-1418,198-4023,295-6350c22-536,43-1008,46-1047l6-73h1319c725,0,1319,2,1319,4s25,154,55,337c141,858,262,1809,435,3414
				c38,358,73,666,77,685c7,40,29-148,92-800c73-748,194-2162,271-3160c17-217,33-414,36-437l5-43h1323h1322l81,218
				c151,402,274,810,453,1495c13,48,26,87,30,87c9,0,109-403,180-723c41-184,220-1059,220-1073c0-2,578-4,1283-4h1284l174,178
				c802,818,1455,1816,1893,2894c779,1914,873,4079,264,6063c-377,1231-1019,2371-1882,3345c-117,131-525,545-656,666
				c-491,449-1011,829-1607,1175c-215,125-655,346-900,452c-949,412-1966,657-3008,726c-389,26-919,23-1297-7l-87-7l-477,787
				c-262,434-479,790-483,792C10535,22926.9,9913,22212.9,9157,21338.9z M12909,20775.9c1699-130,3249-728,4587-1768
				c481-375,987-871,1367-1343c809-1003,1361-2119,1658-3354c349-1453,301-3031-135-4445c-388-1255-1023-2351-1919-3313l-105-112
				l-924,2l-924,3l-44,210c-108,526-232,1051-308,1300c-115,379-220,560-369,638c-57,30-68,32-161,32c-91,0-105-3-159-30
				c-82-41-164-134-220-249c-70-143-150-401-286-921c-58-218-178-627-237-805l-58-175l-856-3l-855-2l-18,227
				c-65,848-202,2421-271,3118c-147,1470-241,2051-366,2262c-40,66-125,134-192,153c-65,18-172,9-228-18c-191-93-258-310-368-1192
				c-28-223-49-408-191-1710c-130-1181-243-2071-351-2762l-13-78h-796h-796l-13,302c-27,679-102,2393-151,3463
				c-203,4400-339,6463-460,6940c-40,155-93,236-192,291c-47,26-63,29-138,29c-69,0-94-4-133-24c-60-29-121-90-153-154
				c-111-216-171-907-349-3992c-67-1174-72-1251-130-2215c-71-1181-140-2204-215-3190c-40-517-109-1353-116-1407l-6-43h-548h-548
				l-115,123c-1083,1157-1820,2600-2121,4155c-109,559-150,1007-150,1622c0,404,5,516,40,870c120,1209,536,2454,1167,3490
				c39,63,77,127,85,141c15,25,20,26,162,37c815,63,1905,504,3255,1315c1465,881,2454,1755,2816,2490c28,55,37,66,63,71
				c35,6,428,34,556,40C12150,20801.9,12718,20790.9,12909,20775.9z"/>
			<path d="M12376,19415.9c-611-84-1047-509-1168-1140c-66-348-50-751,44-1063c37-122,141-331,216-432c120-163,281-301,454-388
				c113-57,146-69,270-102c160-43,274-53,518-47c177,4,231,9,327,30c388,86,643,266,831,589c72,123,188,439,175,474
				c-2,6-26,15-53,19c-65,9-681,113-713,120c-25,5-27,3-39-56c-33-161-125-341-208-407c-98-77-210-112-360-113
				c-189,0-313,49-439,175c-94,94-139,176-178,326s-50,259-50,480c0,384,58,586,213,740c123,122,252,173,441,173
				c283,1,466-136,535-399c10-38,19-70,20-72c1-1,119,18,261,43c143,26,319,57,392,70c74,13,136,25,138,28c10,9-71,218-122,317
				c-193,372-495,573-954,635C12797,19433.9,12506,19433.9,12376,19415.9z"/>
			<path d="M16415,16998.9c-3-989-4-1004-25-1071c-27-88-64-135-138-172c-50-25-70-29-139-30c-120,0-170,18-238,85
				c-65,66-90,130-109,283c-6,51-12,93-14,95s-85-6-185-18c-100-11-203-23-228-26c-96-11-92-7-92-77c0-86,27-237,57-322
				c64-179,180-316,333-393c121-60,217-83,385-89c312-12,541,61,706,226c114,114,181,251,216,441c15,85,17,199,20,1083l4,987h-275
				h-275L16415,16998.9z"/>
			<path d="M18637,14860.9c0-5,5-10,10-10c6,0,10,5,10,10c0,6-4,10-10,10C18642,14870.9,18637,14866.9,18637,14860.9z"/>
			<path d="M18388,11844.9c0-11,3-14,6-6c3,7,2,16-1,19C18390,11861.9,18387,11855.9,18388,11844.9z"/>
			<path d="M18472,11521.9c-3-5-2-12,3-15s9,1,9,9C18484,11532.9,18481,11534.9,18472,11521.9z"/>
			<path d="M18598,11014.9c0-11,3-14,6-6c3,7,2,16-1,19C18600,11031.9,18597,11025.9,18598,11014.9z"/>
			<path d="M6467,4709.9c-364-44-622-293-702-679c-26-124-28-347-4-474c78-407,334-653,725-696c367-40,682,133,797,436
				c22,58,54,192,54,225c0,5-74,9-170,9h-170l-5-27c-13-64-29-111-51-156c-132-259-568-258-742,2c-85,127-117,267-109,475
				c8,216,57,355,162,461c93,92,203,130,364,123c82-3,106-8,163-35c36-17,84-49,106-71c46-46,89-129,100-192l8-45l172-3
				c118-2,172,1,172,8c0,44-39,171-77,250s-59,107-132,180c-68,68-104,95-171,128C6809,4701.9,6635,4730.9,6467,4709.9z"/>
			<path d="M12505,4008.9c-4-739-5-743-65-800c-65-62-174-61-233,1c-41,43-59,94-67,192l-6,69h-168h-169v-67c1-151,47-298,121-387
				c84-100,232-160,394-160c297,1,450,119,506,389c17,83,19,145,19,763v672h-164h-165L12505,4008.9z"/>
			<path d="M7647,3765.9v-885h160h160v885v885h-160h-160V3765.9z"/>
			<path d="M9747,3765.9v-885h160c150,0,160,1,160,19s3,17,59-5c163-66,354-48,501,46c191,123,301,408,270,705
				c-34,329-176,510-439,562c-132,26-216,10-383-75c-5-2-8,114-8,257v261h-160h-160V3765.9z M10402,3935.9c36-8,93-62,119-114
				c34-67,49-151,48-281c0-215-49-337-155-391c-79-41-225-10-314,65l-33,28v265v266l34,42c47,57,132,113,186,124
				C10330,3947.9,10346,3946.9,10402,3935.9z"/>
			<path d="M13672,4214.9c-191-31-339-125-428-270c-101-166-131-417-77-630c73-286,302-457,610-457c160,0,281,40,397,131
				c83,67,162,202,179,312l7,40h-167h-166l-6-27c-29-122-128-190-261-181c-82,6-136,31-187,89c-42,45-70,101-84,167l-10,42h450h451
				l-6,133c-7,157-24,234-77,344c-69,142-200,247-359,288C13872,4212.9,13726,4222.9,13672,4214.9z M13874,3918.9
				c55-25,117-96,137-155c9-26,16-50,16-55c0-4-122-8-271-8h-270l7,23c26,86,65,144,121,178C13696,3952.9,13790,3958.9,13874,3918.9
				z"/>
			<path d="M16659,4210.9c-51-11-140-50-183-80l-29-21v40v41h-160h-160v-655v-655h160h160v449v448l53,51c137,129,296,143,362,32
				c19-34,20-53,23-508l3-472l162,2l162,3l3,390c1,215-2,442-7,505c-19,230-101,354-269,410C16867,4213.9,16723,4224.9,16659,4210.9
				z"/>
			<path d="M18015,4210.9c-258-47-425-210-489-475c-18-77-20-111-16-230c3-86,11-163,21-200c79-283,303-447,611-448
				c303-1,512,163,579,456l6,27h-168h-168l-13-47c-16-63-88-134-154-153c-106-29-227,5-293,82c-33,40-70,119-79,171l-7,37h447h448
				l-6,143c-3,85-12,166-22,202c-60,217-207,368-410,420C18228,4214.9,18079,4222.9,18015,4210.9z M18232,3920.9
				c54-23,103-74,131-135c43-91,60-85-241-85s-284-6-241,85C17947,3925.9,18093,3981.9,18232,3920.9z"/>
			<path d="M8287,3713.9c0-387,3-490,15-541c25-106,76-189,144-236c91-64,242-95,364-76c74,11,197,61,220,88c10,13,13,9,17-24l5-39
				l158-3l157-3v656v656l-157-3l-158-3l-3-452l-2-451l-50-45c-70-63-131-91-210-95c-80-4-125,17-154,74c-20,37-21,58-24,507l-3,467
				h-159h-160V3713.9z"/>
			<path d="M14667,3721.9c0-257,4-490,9-517c20-102,51-165,115-230c70-70,130-98,253-115c110-15,197,0,306,55l87,44v-39v-40l158,3
				l157,3v650v650l-157,3l-158,3v-446v-446l-45-48c-65-70-133-103-219-109c-62-3-75-1-106,20c-19,13-44,41-55,63
				c-19,38-20,63-23,503l-3,462h-160h-159V3721.9z"/>
			<path d="M9372,1839.9c-110-9-166-24-265-72c-66-31-101-56-156-111c-83-84-119-153-135-260c-23-153,18-286,119-384
				c96-95,218-145,522-217c289-68,373-106,411-189c57-127-33-256-206-294c-94-21-159-23-242-8c-184,32-305,142-338,306l-12,55
				l-162,3l-163,3l7-58c36-314,206-512,511-594c107-30,373-33,479-6c178,45,338,161,408,295c47,91,61,159,55,280
				c-4,84-10,109-36,166c-17,37-54,91-83,121c-111,117-253,175-624,256c-234,50-325,108-325,208c0,36,29,98,56,122
				c95,83,335,105,472,44c97-43,161-128,178-233l7-42h158h159v38c-1,119-60,265-146,361C9875,1790.9,9648,1864.9,9372,1839.9z"/>
			<path d="M12690,1838.9c-275-22-497-189-544-409c-16-74-6-211,20-281c13-32,42-80,69-109c94-105,222-166,471-225
				c300-70,359-89,433-140c46-32,68-78,68-140c0-147-135-236-360-236c-210,0-343,75-414,234c-13,29-27,72-31,96l-7,42h-159h-159v-35
				c0-50,28-178,51-237c94-240,336-388,660-405c140-7,253,8,363,48c232,84,367,252,383,475c15,207-76,368-267,468
				c-92,49-193,81-431,136c-305,72-369,109-369,213c0,83,52,146,151,183c65,25,275,25,346,1c108-38,180-121,204-234l10-53h161h160
				l-7,63C13450,1665.9,13141,1875.9,12690,1838.9z"/>
			<path d="M10567,920.9v-900h165h165v385v385h400h400v150v150h-400h-400v210v210h460h460v155v155h-625h-625V920.9z"/>
			<path d="M17787.8,11029.2v-900h160h160v572c0,327,4,568,9,562c5-5,93-262,196-571l187-563h141h142l189,566
				c104,311,193,567,198,570c4,3,8-252,8-565v-571h160h160v900v900h-217h-218l-209-640c-116-352-213-637-216-633
				c-4,5-99,293-211,641l-204,632h-217h-218V11029.2z"/>
			<path d="M13897,920.9v-900h160h160v572c0,327,4,568,9,562c5-5,93-262,196-571l187-563h141h142l189,566c104,311,193,567,198,570
				c4,3,8-252,8-565v-571h160h160v900v900h-217h-218l-209-640c-116-352-213-637-216-633c-4,5-99,293-211,641l-204,632h-217h-218
				V920.9z"/>
		</g>
		<path d="M1829.8,1048.8c-13.9,1.1-20.9,3-33.4,9.1c-8.3,3.9-12.7,7.1-19.7,14c-10.5,10.6-15,19.3-17,32.8
			c-2.9,19.3,2.3,36.1,15,48.4c12.1,12,27.5,18.3,65.8,27.4c36.4,8.6,47,13.4,51.8,23.8c7.2,16-4.2,32.3-26,37.1
			c-11.9,2.6-20,2.9-30.5,1c-23.2-4-38.5-17.9-42.6-38.6l-1.5-6.9l-20.4-0.4l-20.6-0.4l0.9,7.3c4.5,39.6,26,64.6,64.4,74.9
			c13.5,3.8,47,4.2,60.4,0.8c22.4-5.7,42.6-20.3,51.4-37.2c5.9-11.5,7.7-20,6.9-35.3c-0.5-10.6-1.3-13.7-4.5-20.9
			c-2.1-4.7-6.8-11.5-10.5-15.3c-14-14.8-31.9-22.1-78.7-32.3c-29.5-6.3-41-13.6-41-26.2c0-4.5,3.7-12.4,7.1-15.4
			c12-10.5,42.2-13.2,59.5-5.5c12.2,5.4,20.3,16.1,22.4,29.4l0.9,5.3h19.9h20v-4.8c-0.1-15-7.6-33.4-18.4-45.5
			C1893.3,1055,1864.6,1045.6,1829.8,1048.8z"/>
	</g>
	<g id="Calque_2_2_">
	</g>
</g>
<path d="M452.3,877c15,5.6,36.6,12,63.1,14.5c18.5,1.8,45.1,2.2,83.4-6c34.4-7.4,68.2-19.7,131.5-53.2
	c54.6-28.9,92.8-53.3,142.4-85.3c60.7-39,91.7-59.1,128-88.7c39.4-32.1,69.2-61.7,88.9-82.6c14.3-14.6,35.8-40.7,49-78.7
	c7.1-20.4,10-39,11.1-53.7c-32-52.6-64-105.3-96-157.9c-92.5,106.6-185.1,213.2-277.6,319.8c-90.2,22.4-180.5,44.4-270.9,66.1
	c-51.7,12.4-103.5,24.7-155.3,36.9C384.1,764.5,418.2,820.8,452.3,877z"/>
</svg>
