<svg width="3601" height="776" xmlns="http://www.w3.org/2000/svg" xmlns:xlink="http://www.w3.org/1999/xlink" overflow="hidden"><defs><clipPath id="clip0"><rect x="401" y="1056" width="3601" height="776"/></clipPath><clipPath id="clip1"><rect x="824" y="1078" width="391" height="463"/></clipPath><clipPath id="clip2"><rect x="3607" y="595" width="390" height="1849"/></clipPath><clipPath id="clip3"><rect x="3607" y="595" width="390" height="1849"/></clipPath></defs><g clip-path="url(#clip0)" transform="translate(-401 -1056)"><path d="M403.333 1129.16 1604.17 1129.16 1604.17 1201.35 403.333 1201.35Z" fill="#C5D9F1" fill-rule="evenodd"/><path d="M1604.17 1129.16 3996.67 1129.16 3996.67 1201.35 1604.17 1201.35Z" fill="#C5D9F1" fill-rule="evenodd"/><path d="M403.333 1201.35 614.167 1201.35 614.167 1273.54 403.333 1273.54Z" fill="#C5D9F1" fill-rule="evenodd"/><path d="M614.167 1201.35 825 1201.35 825 1273.54 614.167 1273.54Z" fill="#C5D9F1" fill-rule="evenodd"/><path d="M825 1201.35 1214.58 1201.35 1214.58 1273.54 825 1273.54Z" fill="#C5D9F1" fill-rule="evenodd"/><path d="M1214.58 1201.35 1604.17 1201.35 1604.17 1273.54 1214.58 1273.54Z" fill="#C5D9F1" fill-rule="evenodd"/><path d="M1604.17 1201.35 1993.75 1201.35 1993.75 1273.54 1604.17 1273.54Z" fill="#C5D9F1" fill-rule="evenodd"/><path d="M1993.75 1201.35 2204.58 1201.35 2204.58 1273.54 1993.75 1273.54Z" fill="#C5D9F1" fill-rule="evenodd"/><path d="M2204.58 1201.35 2484.17 1201.35 2484.17 1273.54 2204.58 1273.54Z" fill="#C5D9F1" fill-rule="evenodd"/><path d="M2484.17 1201.35 2695 1201.35 2695 1273.54 2484.17 1273.54Z" fill="#C5D9F1" fill-rule="evenodd"/><path d="M2695 1201.35 2905.83 1201.35 2905.83 1273.54 2695 1273.54Z" fill="#C5D9F1" fill-rule="evenodd"/><path d="M2905.83 1201.35 3185.42 1201.35 3185.42 1273.54 2905.83 1273.54Z" fill="#C5D9F1" fill-rule="evenodd"/><path d="M3185.42 1201.35 3396.25 1201.35 3396.25 1273.54 3185.42 1273.54Z" fill="#C5D9F1" fill-rule="evenodd"/><path d="M3396.25 1201.35 3607.08 1201.35 3607.08 1273.54 3396.25 1273.54Z" fill="#C5D9F1" fill-rule="evenodd"/><path d="M3607.08 1201.35 3996.67 1201.35 3996.67 1273.54 3607.08 1273.54Z" fill="#C5D9F1" fill-rule="evenodd"/><path d="M403.333 1273.54 614.167 1273.54 614.167 1342.97 403.333 1342.97Z" fill="#FFFFFF" fill-rule="evenodd"/><path d="M614.167 1273.54 825 1273.54 825 1342.97 614.167 1342.97Z" fill="#FFFFFF" fill-rule="evenodd"/><path d="M825 1273.54 1214.58 1273.54 1214.58 1342.97 825 1342.97Z" fill="#FA654C" fill-rule="evenodd"/><path d="M1214.58 1273.54 1604.17 1273.54 1604.17 1342.97 1214.58 1342.97Z" fill="#FFFFFF" fill-rule="evenodd"/><path d="M1604.17 1273.54 1993.75 1273.54 1993.75 1342.97 1604.17 1342.97Z" fill="#FFFFFF" fill-rule="evenodd"/><path d="M1993.75 1273.54 2204.58 1273.54 2204.58 1342.97 1993.75 1342.97Z" fill="#FFFFFF" fill-rule="evenodd"/><path d="M2204.58 1273.54 2484.17 1273.54 2484.17 1342.97 2204.58 1342.97Z" fill="#92CDDC" fill-rule="evenodd"/><path d="M2484.17 1273.54 2695 1273.54 2695 1342.97 2484.17 1342.97Z" fill="#FFFFFF" fill-rule="evenodd"/><path d="M2695 1273.54 2905.83 1273.54 2905.83 1342.97 2695 1342.97Z" fill="#FFFFFF" fill-rule="evenodd"/><path d="M2905.83 1273.54 3185.42 1273.54 3185.42 1342.97 2905.83 1342.97Z" fill="#92CDDC" fill-rule="evenodd"/><path d="M3185.42 1273.54 3396.25 1273.54 3396.25 1342.97 3185.42 1342.97Z" fill="#FFFFFF" fill-rule="evenodd"/><path d="M3396.25 1273.54 3607.08 1273.54 3607.08 1342.97 3396.25 1342.97Z" fill="#FFFFFF" fill-rule="evenodd"/><path d="M3607.08 1273.54 3996.67 1273.54 3996.67 1762.35 3607.08 1762.35Z" fill="#DF85EB" fill-rule="evenodd"/><path d="M403.333 1342.97 614.167 1342.97 614.167 1412.41 403.333 1412.41Z" fill="#FFFFFF" fill-rule="evenodd"/><path d="M614.167 1342.97 825 1342.97 825 1412.41 614.167 1412.41Z" fill="#FFFFFF" fill-rule="evenodd"/><path d="M825 1342.97 1604.17 1342.97 1604.17 1412.41 825 1412.41Z" fill="#F89B3E" fill-rule="evenodd"/><path d="M1604.17 1342.97 1993.75 1342.97 1993.75 1412.41 1604.17 1412.41Z" fill="#FFFFFF" fill-rule="evenodd"/><path d="M1993.75 1342.97 2204.58 1342.97 2204.58 1412.41 1993.75 1412.41Z" fill="#FFFFFF" fill-rule="evenodd"/><path d="M2204.58 1342.97 2484.17 1342.97 2484.17 1412.41 2204.58 1412.41Z" fill="#FFFFFF" fill-rule="evenodd"/><path d="M2484.17 1342.97 2695 1342.97 2695 1412.41 2484.17 1412.41Z" fill="#FFFFFF" fill-rule="evenodd"/><path d="M2695 1342.97 2905.83 1342.97 2905.83 1412.41 2695 1412.41Z" fill="#FFFFFF" fill-rule="evenodd"/><path d="M2905.83 1342.97 3185.42 1342.97 3185.42 1412.41 2905.83 1412.41Z" fill="#FFFFFF" fill-rule="evenodd"/><path d="M3185.42 1342.97 3396.25 1342.97 3396.25 1412.41 3185.42 1412.41Z" fill="#FFFFFF" fill-rule="evenodd"/><path d="M3396.25 1342.97 3607.08 1342.97 3607.08 1412.41 3396.25 1412.41Z" fill="#FFFFFF" fill-rule="evenodd"/><path d="M403.333 1412.41 614.167 1412.41 614.167 1481.85 403.333 1481.85Z" fill="#FFFFFF" fill-rule="evenodd"/><path d="M614.167 1412.41 825 1412.41 825 1481.85 614.167 1481.85Z" fill="#FFFFFF" fill-rule="evenodd"/><path d="M825 1412.41 1214.58 1412.41 1214.58 1481.85 825 1481.85Z" fill="#FFFFFF" fill-rule="evenodd"/><path d="M1214.58 1412.41 1993.75 1412.41 1993.75 1551.29 1214.58 1551.29Z" fill="#FFFFAB" fill-rule="evenodd"/><path d="M1993.75 1412.41 2204.58 1412.41 2204.58 1481.85 1993.75 1481.85Z" fill="#FFFFFF" fill-rule="evenodd"/><path d="M2204.58 1412.41 2484.17 1412.41 2484.17 1481.85 2204.58 1481.85Z" fill="#FFFFFF" fill-rule="evenodd"/><path d="M2484.17 1412.41 2695 1412.41 2695 1481.85 2484.17 1481.85Z" fill="#FFFFFF" fill-rule="evenodd"/><path d="M2695 1412.41 2905.83 1412.41 2905.83 1481.85 2695 1481.85Z" fill="#FFFFFF" fill-rule="evenodd"/><path d="M2905.83 1412.41 3185.42 1412.41 3185.42 1481.85 2905.83 1481.85Z" fill="#FFFFFF" fill-rule="evenodd"/><path d="M3185.42 1412.41 3396.25 1412.41 3396.25 1481.85 3185.42 1481.85Z" fill="#FFFFFF" fill-rule="evenodd"/><path d="M3396.25 1412.41 3607.08 1412.41 3607.08 1481.85 3396.25 1481.85Z" fill="#FFFFFF" fill-rule="evenodd"/><path d="M403.333 1481.85 614.167 1481.85 614.167 1551.29 403.333 1551.29Z" fill="#FFFFFF" fill-rule="evenodd"/><path d="M614.167 1481.85 825 1481.85 825 1551.29 614.167 1551.29Z" fill="#FFFFFF" fill-rule="evenodd"/><path d="M825 1481.85 1214.58 1481.85 1214.58 1551.29 825 1551.29Z" fill="#FFFFFF" fill-rule="evenodd"/><path d="M1993.75 1481.85 2204.58 1481.85 2204.58 1551.29 1993.75 1551.29Z" fill="#FFFFFF" fill-rule="evenodd"/><path d="M2204.58 1481.85 2484.17 1481.85 2484.17 1551.29 2204.58 1551.29Z" fill="#FFFFFF" fill-rule="evenodd"/><path d="M2484.17 1481.85 2695 1481.85 2695 1551.29 2484.17 1551.29Z" fill="#FFFFFF" fill-rule="evenodd"/><path d="M2695 1481.85 2905.83 1481.85 2905.83 1551.29 2695 1551.29Z" fill="#FFFFFF" fill-rule="evenodd"/><path d="M2905.83 1481.85 3185.42 1481.85 3185.42 1551.29 2905.83 1551.29Z" fill="#FFFFFF" fill-rule="evenodd"/><path d="M3185.42 1481.85 3396.25 1481.85 3396.25 1551.29 3185.42 1551.29Z" fill="#FFFFFF" fill-rule="evenodd"/><path d="M3396.25 1481.85 3607.08 1481.85 3607.08 1551.29 3396.25 1551.29Z" fill="#FFFFFF" fill-rule="evenodd"/><path d="M403.333 1551.29 614.167 1551.29 614.167 1620.72 403.333 1620.72Z" fill="#FFFFFF" fill-rule="evenodd"/><path d="M614.167 1551.29 825 1551.29 825 1620.72 614.167 1620.72Z" fill="#FFFFFF" fill-rule="evenodd"/><path d="M825 1551.29 1214.58 1551.29 1214.58 1620.72 825 1620.72Z" fill="#FFFFFF" fill-rule="evenodd"/><path d="M1214.58 1551.29 1604.17 1551.29 1604.17 1620.72 1214.58 1620.72Z" fill="#FFFFFF" fill-rule="evenodd"/><path d="M1604.17 1551.29 2204.58 1551.29 2204.58 1690.16 1604.17 1690.16Z" fill="#C0E399" fill-rule="evenodd"/><path d="M2204.58 1551.29 2484.17 1551.29 2484.17 1620.72 2204.58 1620.72Z" fill="#FFFFFF" fill-rule="evenodd"/><path d="M2484.17 1551.29 2695 1551.29 2695 1620.72 2484.17 1620.72Z" fill="#FFFFFF" fill-rule="evenodd"/><path d="M2695 1551.29 2905.83 1551.29 2905.83 1620.72 2695 1620.72Z" fill="#FFFFFF" fill-rule="evenodd"/><path d="M2905.83 1551.29 3185.42 1551.29 3185.42 1620.72 2905.83 1620.72Z" fill="#FFFFFF" fill-rule="evenodd"/><path d="M3185.42 1551.29 3396.25 1551.29 3396.25 1620.72 3185.42 1620.72Z" fill="#FFFFFF" fill-rule="evenodd"/><path d="M3396.25 1551.29 3607.08 1551.29 3607.08 1620.72 3396.25 1620.72Z" fill="#FFFFFF" fill-rule="evenodd"/><path d="M403.333 1620.72 614.167 1620.72 614.167 1690.16 403.333 1690.16Z" fill="#FFFFFF" fill-rule="evenodd"/><path d="M614.167 1620.72 825 1620.72 825 1690.16 614.167 1690.16Z" fill="#FFFFFF" fill-rule="evenodd"/><path d="M825 1620.72 1214.58 1620.72 1214.58 1690.16 825 1690.16Z" fill="#FFFFFF" fill-rule="evenodd"/><path d="M1214.58 1620.72 1604.17 1620.72 1604.17 1690.16 1214.58 1690.16Z" fill="#FFFFFF" fill-rule="evenodd"/><path d="M2204.58 1620.72 2484.17 1620.72 2484.17 1690.16 2204.58 1690.16Z" fill="#FFFFFF" fill-rule="evenodd"/><path d="M2484.17 1620.72 2695 1620.72 2695 1690.16 2484.17 1690.16Z" fill="#FFFFFF" fill-rule="evenodd"/><path d="M2695 1620.72 2905.83 1620.72 2905.83 1690.16 2695 1690.16Z" fill="#FFFFFF" fill-rule="evenodd"/><path d="M2905.83 1620.72 3185.42 1620.72 3185.42 1690.16 2905.83 1690.16Z" fill="#FFFFFF" fill-rule="evenodd"/><path d="M3185.42 1620.72 3396.25 1620.72 3396.25 1690.16 3185.42 1690.16Z" fill="#FFFFFF" fill-rule="evenodd"/><path d="M3396.25 1620.72 3607.08 1620.72 3607.08 1690.16 3396.25 1690.16Z" fill="#FFFFFF" fill-rule="evenodd"/><path d="M403.333 1690.16 614.167 1690.16 614.167 1762.35 403.333 1762.35Z" fill="#FFFFFF" fill-rule="evenodd"/><path d="M614.167 1690.16 825 1690.16 825 1762.35 614.167 1762.35Z" fill="#FFFFFF" fill-rule="evenodd"/><path d="M825 1690.16 1214.58 1690.16 1214.58 1762.35 825 1762.35Z" fill="#FFFFFF" fill-rule="evenodd"/><path d="M1214.58 1690.16 1604.17 1690.16 1604.17 1762.35 1214.58 1762.35Z" fill="#FFFFFF" fill-rule="evenodd"/><path d="M1604.17 1690.16 2204.58 1690.16 2204.58 1762.35 1604.17 1762.35Z" fill="#92D050" fill-rule="evenodd"/><path d="M2204.58 1690.16 2484.17 1690.16 2484.17 1762.35 2204.58 1762.35Z" fill="#FFFFFF" fill-rule="evenodd"/><path d="M2484.17 1690.16 2695 1690.16 2695 1762.35 2484.17 1762.35Z" fill="#FFFFFF" fill-rule="evenodd"/><path d="M2695 1690.16 2905.83 1690.16 2905.83 1762.35 2695 1762.35Z" fill="#FFFFFF" fill-rule="evenodd"/><path d="M2905.83 1690.16 3185.42 1690.16 3185.42 1762.35 2905.83 1762.35Z" fill="#FFFFFF" fill-rule="evenodd"/><path d="M3185.42 1690.16 3396.25 1690.16 3396.25 1762.35 3185.42 1762.35Z" fill="#FFFFFF" fill-rule="evenodd"/><path d="M3396.25 1690.16 3607.08 1690.16 3607.08 1762.35 3396.25 1762.35Z" fill="#FFFFFF" fill-rule="evenodd"/><path d="M614.167 1199.06 614.167 1271.24" stroke="#000000" stroke-width="2.29167" stroke-linejoin="round" stroke-miterlimit="10" fill="none" fill-rule="evenodd"/><path d="M614.167 1271.24 614.167 1764.64" stroke="#D9D9D9" stroke-width="4.58333" stroke-linejoin="round" stroke-miterlimit="10" fill="none" fill-rule="evenodd"/><path d="M825 1199.06 825 1411.27" stroke="#000000" stroke-width="2.29167" stroke-linejoin="round" stroke-miterlimit="10" fill="none" fill-rule="evenodd"/><path d="M825 1411.27 825 1764.64" stroke="#D9D9D9" stroke-width="4.58333" stroke-linejoin="round" stroke-miterlimit="10" fill="none" fill-rule="evenodd"/><path d="M1214.58 1199.06 1214.58 1344.12" stroke="#000000" stroke-width="2.29167" stroke-linejoin="round" stroke-miterlimit="10" fill="none" fill-rule="evenodd"/><path d="M1214.58 1411.27 1214.58 1550.14" stroke="#000000" stroke-width="2.29167" stroke-linejoin="round" stroke-miterlimit="10" fill="none" fill-rule="evenodd"/><path d="M1214.58 1550.14 1214.58 1764.64" stroke="#D9D9D9" stroke-width="4.58333" stroke-linejoin="round" stroke-miterlimit="10" fill="none" fill-rule="evenodd"/><path d="M1604.17 1126.87 1604.17 1413.56" stroke="#000000" stroke-width="4.58333" stroke-linejoin="round" stroke-miterlimit="10" fill="none" fill-rule="evenodd"/><path d="M1604.17 1550.14 1604.17 1764.64" stroke="#000000" stroke-width="4.58333" stroke-linejoin="round" stroke-miterlimit="10" fill="none" fill-rule="evenodd"/><path d="M1993.75 1199.06 1993.75 1271.24" stroke="#000000" stroke-width="2.29167" stroke-linejoin="round" stroke-miterlimit="10" fill="none" fill-rule="evenodd"/><path d="M1993.75 1271.24 1993.75 1413.56" stroke="#D9D9D9" stroke-width="4.58333" stroke-linejoin="round" stroke-miterlimit="10" fill="none" fill-rule="evenodd"/><path d="M1993.75 1413.56 1993.75 1552.43" stroke="#000000" stroke-width="2.29167" stroke-linejoin="round" stroke-miterlimit="10" fill="none" fill-rule="evenodd"/><path d="M2204.58 1199.06 2204.58 1341.83" stroke="#000000" stroke-width="2.29167" stroke-linejoin="round" stroke-miterlimit="10" fill="none" fill-rule="evenodd"/><path d="M2204.58 1341.83 2204.58 1552.43" stroke="#D9D9D9" stroke-width="4.58333" stroke-linejoin="round" stroke-miterlimit="10" fill="none" fill-rule="evenodd"/><path d="M2204.58 1552.43 2204.58 1764.64" stroke="#000000" stroke-width="2.29167" stroke-linejoin="round" stroke-miterlimit="10" fill="none" fill-rule="evenodd"/><path d="M2484.17 1199.06 2484.17 1341.83" stroke="#000000" stroke-width="2.29167" stroke-linejoin="round" stroke-miterlimit="10" fill="none" fill-rule="evenodd"/><path d="M2484.17 1341.83 2484.17 1764.64" stroke="#D9D9D9" stroke-width="4.58333" stroke-linejoin="round" stroke-miterlimit="10" fill="none" fill-rule="evenodd"/><path d="M2695 1199.06 2695 1271.24" stroke="#000000" stroke-width="2.29167" stroke-linejoin="round" stroke-miterlimit="10" fill="none" fill-rule="evenodd"/><path d="M2695 1271.24 2695 1764.64" stroke="#D9D9D9" stroke-width="4.58333" stroke-linejoin="round" stroke-miterlimit="10" fill="none" fill-rule="evenodd"/><path d="M2905.83 1199.06 2905.83 1341.83" stroke="#000000" stroke-width="2.29167" stroke-linejoin="round" stroke-miterlimit="10" fill="none" fill-rule="evenodd"/><path d="M2905.83 1341.83 2905.83 1764.64" stroke="#D9D9D9" stroke-width="4.58333" stroke-linejoin="round" stroke-miterlimit="10" fill="none" fill-rule="evenodd"/><path d="M3185.42 1199.06 3185.42 1341.83" stroke="#000000" stroke-width="2.29167" stroke-linejoin="round" stroke-miterlimit="10" fill="none" fill-rule="evenodd"/><path d="M3185.42 1341.83 3185.42 1764.64" stroke="#D9D9D9" stroke-width="4.58333" stroke-linejoin="round" stroke-miterlimit="10" fill="none" fill-rule="evenodd"/><path d="M3396.25 1199.06 3396.25 1271.24" stroke="#000000" stroke-width="2.29167" stroke-linejoin="round" stroke-miterlimit="10" fill="none" fill-rule="evenodd"/><path d="M3396.25 1271.24 3396.25 1764.64" stroke="#D9D9D9" stroke-width="4.58333" stroke-linejoin="round" stroke-miterlimit="10" fill="none" fill-rule="evenodd"/><path d="M3607.08 1199.06 3607.08 1764.64" stroke="#000000" stroke-width="2.29167" stroke-linejoin="round" stroke-miterlimit="10" fill="none" fill-rule="evenodd"/><path d="M401.042 1129.16 3998.96 1129.16" stroke="#000000" stroke-width="4.58333" stroke-linejoin="round" stroke-miterlimit="10" fill="none" fill-rule="evenodd"/><path d="M401.042 1201.35 3998.96 1201.35" stroke="#000000" stroke-width="4.58333" stroke-linejoin="round" stroke-miterlimit="10" fill="none" fill-rule="evenodd"/><path d="M401.042 1273.54 3998.96 1273.54" stroke="#000000" stroke-width="4.58333" stroke-linejoin="round" stroke-miterlimit="10" fill="none" fill-rule="evenodd"/><path d="M823.854 1342.97 1606.46 1342.97" stroke="#000000" stroke-width="2.29167" stroke-linejoin="round" stroke-miterlimit="10" fill="none" fill-rule="evenodd"/><path d="M2202.29 1342.97 2486.46 1342.97" stroke="#000000" stroke-width="2.29167" stroke-linejoin="round" stroke-miterlimit="10" fill="none" fill-rule="evenodd"/><path d="M2903.54 1342.97 3187.71 1342.97" stroke="#000000" stroke-width="2.29167" stroke-linejoin="round" stroke-miterlimit="10" fill="none" fill-rule="evenodd"/><path d="M822.708 1412.41 1996.04 1412.41" stroke="#000000" stroke-width="2.29167" stroke-linejoin="round" stroke-miterlimit="10" fill="none" fill-rule="evenodd"/><path d="M1212.29 1551.29 2206.88 1551.29" stroke="#000000" stroke-width="2.29167" stroke-linejoin="round" stroke-miterlimit="10" fill="none" fill-rule="evenodd"/><path d="M1601.88 1690.16 2205.73 1690.16" stroke="#000000" stroke-width="2.29167" stroke-linejoin="round" stroke-miterlimit="10" fill="none" fill-rule="evenodd"/><path d="M401.042 1762.35 3997.81 1762.35" stroke="#000000" stroke-width="4.58333" stroke-linejoin="round" stroke-miterlimit="10" fill="none" fill-rule="evenodd"/><path d="M403.333 1126.87 403.333 1764.64" stroke="#000000" stroke-width="4.58333" stroke-linejoin="round" stroke-miterlimit="10" fill="none" fill-rule="evenodd"/><path d="M3996.67 1126.87 3996.67 1275.83" stroke="#000000" stroke-width="4.58333" stroke-linejoin="round" stroke-miterlimit="10" fill="none" fill-rule="evenodd"/><path d="M3996.67 1275.83 3996.67 1764.64" stroke="#000000" stroke-width="2.29167" stroke-linejoin="round" stroke-miterlimit="10" fill="none" fill-rule="evenodd"/><text font-family="Arial Rounded MT Bold,Arial Rounded MT Bold_MSFontService,sans-serif" font-weight="700" font-size="55" transform="matrix(1 0 0 1 938.437 1187)">2025<tspan font-size="55" x="1796.67" y="0">2026</tspan><tspan font-size="55" x="-488.389" y="72">Sep.</tspan><tspan font-size="55" x="-275.287" y="72">Oct.</tspan><tspan font-size="55" x="22.7676" y="72">Nov.</tspan><tspan font-size="55" x="410.724" y="72">Déc.</tspan><tspan font-size="55" x="803.229" y="72">Jan.</tspan><tspan font-size="55" x="1106.36" y="72">Fév.</tspan><tspan font-size="55" x="1340.45" y="72">Mars</tspan><tspan font-size="55" x="1599.98" y="72">Avr.</tspan><tspan font-size="55" x="1815.29" y="72">Mai</tspan><tspan font-size="55" x="2050.76" y="72">Juin</tspan><tspan font-size="55" x="2296.54" y="72">Juil.</tspan><tspan font-size="55" x="2500.49" y="72">Août</tspan><tspan font-size="55" x="2804.74" y="72">Sep.</tspan></text><g clip-path="url(#clip1)"><text font-family="Arial Rounded MT Bold,Arial Rounded MT Bold_MSFontService,sans-serif" font-weight="700" font-size="55" transform="matrix(1 0 0 1 869.114 1330)">1. Annonce </text></g><text font-family="Arial Rounded MT Bold,Arial Rounded MT Bold_MSFontService,sans-serif" font-weight="700" font-size="55" transform="matrix(1 0 0 1 2247.84 1330)">6. Suivi<tspan font-size="55" x="701.25" y="0">6. Suivi</tspan><tspan font-size="55" x="1454.62" y="111">7. Bilan </tspan></text><g clip-path="url(#clip2)"><text font-family="Arial Rounded MT Bold,Arial Rounded MT Bold_MSFontService,sans-serif" font-weight="700" font-size="55" transform="matrix(1 0 0 1 3614.81 1507)">(formulaire de </text></g><text font-family="Arial Rounded MT Bold,Arial Rounded MT Bold_MSFontService,sans-serif" font-weight="700" font-size="55" transform="matrix(1 0 0 1 3704.98 1573)">retours </text><g clip-path="url(#clip3)"><text font-family="Arial Rounded MT Bold,Arial Rounded MT Bold_MSFontService,sans-serif" font-weight="700" font-size="55" transform="matrix(1 0 0 1 3619.48 1639)">d'expérience)</text></g><text font-family="Arial Rounded MT Bold,Arial Rounded MT Bold_MSFontService,sans-serif" font-weight="700" font-size="55" transform="matrix(1 0 0 1 1057.6 1399)">2. Sélection<tspan font-size="55" x="362.278" y="72">3. Proposition </tspan><tspan font-size="55" x="210.547" y="138">des binômes par le CJSM</tspan><tspan font-size="55" x="625.063" y="210">4. Formation des </tspan><tspan font-size="55" x="708.938" y="276">Mentor.e.s</tspan><tspan font-size="55" x="665.729" y="349">5. Lancement</tspan></text></g></svg>