<svg id="Calque_1" data-name="Calque 1" xmlns="http://www.w3.org/2000/svg" xmlns:xlink="http://www.w3.org/1999/xlink" viewBox="0 0 429.54 236.69"><defs><style>.cls-1{fill:none;}.cls-2{clip-path:url(#clip-path);}.cls-3,.cls-4{fill:#2e1e8b;}.cls-3,.cls-4,.cls-7,.cls-8{fill-rule:evenodd;}.cls-4,.cls-7{stroke:#fff;stroke-miterlimit:8;stroke-width:4.58px;}.cls-5{isolation:isolate;}.cls-6{fill:#fff;}.cls-7,.cls-8{fill:#0070c0;}</style><clipPath id="clip-path"><rect class="cls-1" width="429.54" height="236.69"/></clipPath></defs><title>relation</title><g class="cls-2"><path class="cls-3" d="M231,166.89l12.76-17.37h-5.1V80.8h5.1L231,63.43,218.27,80.8h5.1v68.72h-5.1Z"/><path class="cls-4" d="M98.33,5.81c0-2.72,5.13-4.92,11.46-4.92H316.12c6.33,0,11.46,2.2,11.46,4.92v39.4c0,2.72-5.13,4.93-11.46,4.93H109.79c-6.33,0-11.46-2.21-11.46-4.93Z"/><g class="cls-5"><g class="cls-5"><path class="cls-6" d="M138.58,26.7l1.74-.15a3.85,3.85,0,0,0,.58,1.72,3.22,3.22,0,0,0,1.4,1.08,5.27,5.27,0,0,0,2.14.41,5.13,5.13,0,0,0,1.87-.31,2.59,2.59,0,0,0,1.2-.86,2,2,0,0,0,.4-1.2,1.82,1.82,0,0,0-.38-1.14,2.94,2.94,0,0,0-1.26-.83c-.37-.14-1.2-.37-2.48-.68a11.93,11.93,0,0,1-2.7-.87,3.83,3.83,0,0,1-1.49-1.3,3.2,3.2,0,0,1-.49-1.73,3.57,3.57,0,0,1,.6-2,3.77,3.77,0,0,1,1.75-1.39A6.63,6.63,0,0,1,144,17a7,7,0,0,1,2.74.5A4,4,0,0,1,148.58,19a4.18,4.18,0,0,1,.69,2.2l-1.77.13a2.86,2.86,0,0,0-1-2,3.76,3.76,0,0,0-2.43-.68,4,4,0,0,0-2.44.61,1.86,1.86,0,0,0-.77,1.48,1.55,1.55,0,0,0,.55,1.24,7.33,7.33,0,0,0,2.78,1,18,18,0,0,1,3.09.89,4.19,4.19,0,0,1,1.8,1.42,3.49,3.49,0,0,1,.58,2,3.86,3.86,0,0,1-.64,2.1,4.2,4.2,0,0,1-1.83,1.53,6.34,6.34,0,0,1-2.69.55,8,8,0,0,1-3.17-.55,4.39,4.39,0,0,1-2-1.66A4.73,4.73,0,0,1,138.58,26.7Z"/><path class="cls-6" d="M151.35,26.13A5.21,5.21,0,0,1,152.91,22a4.7,4.7,0,0,1,3.18-1.12,4.55,4.55,0,0,1,3.41,1.36A5.21,5.21,0,0,1,160.82,26a6.63,6.63,0,0,1-.59,3.06,4.08,4.08,0,0,1-1.7,1.74,5,5,0,0,1-2.44.62,4.53,4.53,0,0,1-3.43-1.36A5.44,5.44,0,0,1,151.35,26.13Zm1.76,0A4.3,4.3,0,0,0,154,29a2.71,2.71,0,0,0,2.13,1,2.68,2.68,0,0,0,2.12-1,4.38,4.38,0,0,0,.85-3,4.16,4.16,0,0,0-.85-2.84,2.83,2.83,0,0,0-4.25,0A4.24,4.24,0,0,0,153.11,26.13Z"/><path class="cls-6" d="M169.45,31.18V29.7a3.71,3.71,0,0,1-3.21,1.71,4.09,4.09,0,0,1-1.67-.34,2.85,2.85,0,0,1-1.15-.86,3.4,3.4,0,0,1-.53-1.27,8.82,8.82,0,0,1-.1-1.6V21.08h1.71v5.6a9.79,9.79,0,0,0,.11,1.81,1.75,1.75,0,0,0,.68,1.06,2.11,2.11,0,0,0,1.3.39,2.84,2.84,0,0,0,1.44-.4,2.19,2.19,0,0,0,1-1.08,5.31,5.31,0,0,0,.28-2V21.08H171v10.1Z"/><path class="cls-6" d="M173,28.17l1.69-.27a2.36,2.36,0,0,0,.8,1.56,2.76,2.76,0,0,0,1.82.54,2.67,2.67,0,0,0,1.75-.48,1.43,1.43,0,0,0,.57-1.13,1,1,0,0,0-.5-.91,7.44,7.44,0,0,0-1.75-.58,16.14,16.14,0,0,1-2.61-.82,2.63,2.63,0,0,1-1.11-1,2.57,2.57,0,0,1-.37-1.36,2.55,2.55,0,0,1,.31-1.25,2.67,2.67,0,0,1,.84-1,3.47,3.47,0,0,1,1.09-.5,5.4,5.4,0,0,1,1.48-.2,5.84,5.84,0,0,1,2.09.34,2.85,2.85,0,0,1,1.32.93,3.59,3.59,0,0,1,.59,1.56l-1.67.23a1.89,1.89,0,0,0-.66-1.22,2.44,2.44,0,0,0-1.55-.43,2.77,2.77,0,0,0-1.68.39,1.13,1.13,0,0,0-.51.91,1,1,0,0,0,.21.6,1.55,1.55,0,0,0,.66.46c.17.06.67.21,1.51.43a21.61,21.61,0,0,1,2.54.8,2.42,2.42,0,0,1,1.53,2.36,2.86,2.86,0,0,1-.5,1.62A3.25,3.25,0,0,1,179.43,31a5.36,5.36,0,0,1-2.13.41,4.72,4.72,0,0,1-3-.82A3.77,3.77,0,0,1,173,28.17Z"/><path class="cls-6" d="M182.74,27V25.27H188V27Z"/><path class="cls-6" d="M196.49,27.48l1.69.22a4.46,4.46,0,0,1-1.41,2.73,4.16,4.16,0,0,1-2.8,1,4.31,4.31,0,0,1-3.33-1.36,5.49,5.49,0,0,1-1.26-3.88,7.1,7.1,0,0,1,.54-2.87,3.76,3.76,0,0,1,1.65-1.84,4.88,4.88,0,0,1,2.41-.61,4.14,4.14,0,0,1,2.69.83A3.84,3.84,0,0,1,198,24l-1.67.26a2.77,2.77,0,0,0-.84-1.53,2.18,2.18,0,0,0-1.46-.51,2.63,2.63,0,0,0-2.1.92,4.41,4.41,0,0,0-.81,2.94,4.56,4.56,0,0,0,.78,3,2.55,2.55,0,0,0,2,.92,2.37,2.37,0,0,0,1.69-.62A3,3,0,0,0,196.49,27.48Z"/><path class="cls-6" d="M199,26.13A5.21,5.21,0,0,1,200.57,22a4.69,4.69,0,0,1,3.17-1.12,4.53,4.53,0,0,1,3.41,1.36A5.21,5.21,0,0,1,208.47,26a6.64,6.64,0,0,1-.58,3.06,4.13,4.13,0,0,1-1.7,1.74,5,5,0,0,1-2.45.62,4.55,4.55,0,0,1-3.43-1.36A5.44,5.44,0,0,1,199,26.13Zm1.76,0a4.36,4.36,0,0,0,.84,2.91,2.83,2.83,0,0,0,4.26,0,4.43,4.43,0,0,0,.84-3,4.16,4.16,0,0,0-.85-2.84,2.83,2.83,0,0,0-4.25,0A4.29,4.29,0,0,0,200.77,26.13Z"/><path class="cls-6" d="M210.48,31.18V21.08H212v1.41a3.63,3.63,0,0,1,1.27-1.19,3.59,3.59,0,0,1,1.8-.45,3.33,3.33,0,0,1,1.84.46,2.46,2.46,0,0,1,1,1.31,3.63,3.63,0,0,1,3.12-1.77,3.06,3.06,0,0,1,2.32.83,3.56,3.56,0,0,1,.8,2.56v6.94h-1.7V24.82a4.74,4.74,0,0,0-.16-1.48,1.45,1.45,0,0,0-.61-.73,1.83,1.83,0,0,0-1-.28,2.4,2.4,0,0,0-1.77.71,3.12,3.12,0,0,0-.7,2.27v5.87h-1.71V24.62a2.89,2.89,0,0,0-.42-1.72,1.59,1.59,0,0,0-1.37-.57,2.54,2.54,0,0,0-1.34.38,2.17,2.17,0,0,0-.89,1.12,6.3,6.3,0,0,0-.28,2.11v5.24Z"/><path class="cls-6" d="M226.73,19.2v-2h1.71v2Zm0,12V21.08h1.71v10.1Z"/><path class="cls-6" d="M234.79,29.65l.24,1.51a6.39,6.39,0,0,1-1.29.15,2.91,2.91,0,0,1-1.45-.29,1.69,1.69,0,0,1-.72-.78,6.09,6.09,0,0,1-.21-2V22.41H230.1V21.08h1.26V18.57l1.7-1v3.53h1.73v1.33h-1.73v5.91a3,3,0,0,0,.09.94.68.68,0,0,0,.3.33,1.13,1.13,0,0,0,.58.13A6.84,6.84,0,0,0,234.79,29.65Z"/><path class="cls-6" d="M243.38,27.93l1.77.22a4.34,4.34,0,0,1-1.55,2.4,4.69,4.69,0,0,1-2.9.86A4.58,4.58,0,0,1,237.19,30a5.31,5.31,0,0,1-1.3-3.83,5.57,5.57,0,0,1,1.31-3.95,4.45,4.45,0,0,1,3.41-1.41,4.32,4.32,0,0,1,3.31,1.38,5.46,5.46,0,0,1,1.28,3.88v.46h-7.54a3.89,3.89,0,0,0,.94,2.55,2.81,2.81,0,0,0,2.11.88,2.61,2.61,0,0,0,1.61-.49A3.33,3.33,0,0,0,243.38,27.93Zm-5.63-2.77h5.65a3.47,3.47,0,0,0-.65-1.91,2.63,2.63,0,0,0-2.12-1,2.72,2.72,0,0,0-2,.79A3.15,3.15,0,0,0,237.75,25.16Zm1.85-5.34,1.27-2.66h2.24L241,19.82Z"/><path class="cls-6" d="M262.88,26.29l1.85.47a6.25,6.25,0,0,1-2.09,3.47A5.76,5.76,0,0,1,259,31.42a6.63,6.63,0,0,1-3.67-.92,5.67,5.67,0,0,1-2.15-2.66,9.35,9.35,0,0,1-.74-3.74,8.28,8.28,0,0,1,.83-3.8,5.75,5.75,0,0,1,2.37-2.46A6.84,6.84,0,0,1,259,17a5.71,5.71,0,0,1,3.52,1.07,5.47,5.47,0,0,1,2,3l-1.81.43a4.36,4.36,0,0,0-1.41-2.22,3.78,3.78,0,0,0-2.32-.7,4.53,4.53,0,0,0-2.69.77,4.12,4.12,0,0,0-1.52,2.07,9,9,0,0,0,.08,5.79,3.86,3.86,0,0,0,1.61,2,4.51,4.51,0,0,0,2.37.66,4,4,0,0,0,2.63-.89A4.57,4.57,0,0,0,262.88,26.29Z"/><path class="cls-6" d="M266.06,27.22l1.67-.23a3.49,3.49,0,0,0,.6,2.19,1.84,1.84,0,0,0,1.47.59,2.11,2.11,0,0,0,1.2-.32,1.64,1.64,0,0,0,.7-.86,6.07,6.07,0,0,0,.19-1.75V17.23h1.84v9.51a7,7,0,0,1-.42,2.71A3,3,0,0,1,272,30.92a4.48,4.48,0,0,1-2.16.5A3.62,3.62,0,0,1,267,30.36,4.38,4.38,0,0,1,266.06,27.22Z"/><path class="cls-6" d="M276.12,26.7l1.74-.15a4,4,0,0,0,.58,1.72,3.22,3.22,0,0,0,1.4,1.08,5.27,5.27,0,0,0,2.14.41,5.13,5.13,0,0,0,1.87-.31,2.59,2.59,0,0,0,1.2-.86,2,2,0,0,0,.4-1.2,1.82,1.82,0,0,0-.38-1.14,2.94,2.94,0,0,0-1.26-.83c-.37-.14-1.2-.37-2.48-.68a12.11,12.11,0,0,1-2.7-.87,3.83,3.83,0,0,1-1.49-1.3,3.2,3.2,0,0,1-.49-1.73,3.57,3.57,0,0,1,.6-2A3.75,3.75,0,0,1,279,17.47a6.55,6.55,0,0,1,2.55-.48,7,7,0,0,1,2.74.5A4,4,0,0,1,286.12,19a4.18,4.18,0,0,1,.69,2.2l-1.77.13a2.86,2.86,0,0,0-1-2,3.76,3.76,0,0,0-2.43-.68,4,4,0,0,0-2.44.61,1.86,1.86,0,0,0-.77,1.48A1.55,1.55,0,0,0,279,22a7.33,7.33,0,0,0,2.78,1,18,18,0,0,1,3.09.89,4.19,4.19,0,0,1,1.8,1.42,3.49,3.49,0,0,1,.58,2,3.86,3.86,0,0,1-.64,2.1,4.2,4.2,0,0,1-1.83,1.53,6.34,6.34,0,0,1-2.69.55,8,8,0,0,1-3.17-.55,4.39,4.39,0,0,1-2-1.66A4.73,4.73,0,0,1,276.12,26.7Z"/><path class="cls-6" d="M289.69,31.18V17.23h2.78l3.3,9.88c.31.92.53,1.61.67,2.06.16-.5.4-1.25.74-2.23l3.34-9.71H303v14h-1.78V19.51l-4.05,11.67h-1.66l-4-11.87V31.18Z"/></g></g><path class="cls-7" d="M283.29,175.54c0-2.73,3.26-4.93,7.28-4.93H421.64c4,0,7.28,2.2,7.28,4.93v39.4c0,2.72-3.26,4.92-7.28,4.92H290.57c-4,0-7.28-2.2-7.28-4.92Z"/><g class="cls-5"><path class="cls-6" d="M327.37,200.55v-14h2.78l3.3,9.88c.3.92.53,1.61.67,2.06.15-.51.4-1.25.74-2.23l3.34-9.71h2.48v14H338.9V188.87l-4,11.68h-1.67l-4-11.88v11.88Z"/><path class="cls-6" d="M350.36,197.3l1.77.22a4.34,4.34,0,0,1-1.55,2.4,4.69,4.69,0,0,1-2.9.86,4.62,4.62,0,0,1-3.51-1.37,5.31,5.31,0,0,1-1.3-3.83,5.61,5.61,0,0,1,1.31-4,4.48,4.48,0,0,1,3.41-1.4,4.32,4.32,0,0,1,3.31,1.38,5.46,5.46,0,0,1,1.28,3.88v.46h-7.54a3.89,3.89,0,0,0,.94,2.55,2.81,2.81,0,0,0,2.11.88,2.61,2.61,0,0,0,1.61-.49A3.26,3.26,0,0,0,350.36,197.3Zm-5.63-2.77h5.65a3.46,3.46,0,0,0-.65-1.92,2.63,2.63,0,0,0-2.12-1,2.76,2.76,0,0,0-2,.79A3.2,3.2,0,0,0,344.73,194.53Z"/><path class="cls-6" d="M354.28,200.55V190.44h1.54v1.44a3.62,3.62,0,0,1,3.22-1.66,4.37,4.37,0,0,1,1.68.32,2.59,2.59,0,0,1,1.14.87,3.28,3.28,0,0,1,.54,1.26,10.4,10.4,0,0,1,.09,1.67v6.21h-1.71V194.4a4.67,4.67,0,0,0-.2-1.56,1.63,1.63,0,0,0-.71-.83,2.23,2.23,0,0,0-1.2-.31,2.74,2.74,0,0,0-1.88.7A3.41,3.41,0,0,0,356,195v5.52Z"/><path class="cls-6" d="M368.86,199l.24,1.51a6.39,6.39,0,0,1-1.29.15,2.94,2.94,0,0,1-1.45-.29,1.69,1.69,0,0,1-.72-.78,6.09,6.09,0,0,1-.21-2v-5.81h-1.26v-1.34h1.26v-2.5l1.7-1v3.53h1.73v1.34h-1.73v5.91a3,3,0,0,0,.09.94.68.68,0,0,0,.3.33,1.17,1.17,0,0,0,.58.12A6.14,6.14,0,0,0,368.86,199Z"/><path class="cls-6" d="M369.89,195.5a5.19,5.19,0,0,1,1.57-4.16,4.66,4.66,0,0,1,3.17-1.12,4.53,4.53,0,0,1,3.41,1.36,5.2,5.2,0,0,1,1.32,3.77,6.68,6.68,0,0,1-.58,3.07,4.1,4.1,0,0,1-1.71,1.74,5,5,0,0,1-2.44.62,4.59,4.59,0,0,1-3.43-1.36A5.46,5.46,0,0,1,369.89,195.5Zm1.76,0a4.31,4.31,0,0,0,.85,2.9,2.82,2.82,0,0,0,4.26,0,4.43,4.43,0,0,0,.84-3,4.16,4.16,0,0,0-.85-2.84,2.81,2.81,0,0,0-4.25,0A4.29,4.29,0,0,0,371.65,195.5Z"/><path class="cls-6" d="M381.35,200.55V190.44h1.54V192a4.3,4.3,0,0,1,1.09-1.42,1.88,1.88,0,0,1,1.1-.34,3.29,3.29,0,0,1,1.76.55l-.59,1.59A2.43,2.43,0,0,0,385,192a1.63,1.63,0,0,0-1,.33,1.87,1.87,0,0,0-.64.94,6.71,6.71,0,0,0-.29,2v5.29Z"/></g><path class="cls-8" d="M276,188.86l-20.29,12.75v-5.1H175.49v5.1L155.2,188.86l20.29-12.76v5.1h80.24v-5.1Z"/><path class="cls-7" d="M.89,170.93c0-2.72,3.26-4.93,7.3-4.93H139.57c4,0,7.3,2.21,7.3,4.93v39.4c0,2.72-3.27,4.93-7.3,4.93H8.19c-4,0-7.3-2.21-7.3-4.93Z"/><g class="cls-5"><g class="cls-5"><path class="cls-6" d="M40.24,195.94V182H43l3.31,9.88c.3.92.52,1.6.66,2.06.16-.51.41-1.25.74-2.24l3.34-9.7h2.49v13.95H51.77V184.26l-4.05,11.68H46.05l-4-11.88v11.88Z"/><path class="cls-6" d="M63.23,192.69l1.77.21a4.29,4.29,0,0,1-1.56,2.41,5.23,5.23,0,0,1-6.4-.51,5.32,5.32,0,0,1-1.3-3.83,5.57,5.57,0,0,1,1.31-4,4.45,4.45,0,0,1,3.41-1.41A4.32,4.32,0,0,1,63.77,187a5.53,5.53,0,0,1,1.28,3.89c0,.1,0,.25,0,.45H57.51a3.84,3.84,0,0,0,.94,2.55,2.8,2.8,0,0,0,2.11.89,2.62,2.62,0,0,0,1.61-.5A3.3,3.3,0,0,0,63.23,192.69Zm-5.63-2.77h5.64A3.46,3.46,0,0,0,62.6,188a2.64,2.64,0,0,0-2.12-1,2.76,2.76,0,0,0-2,.79A3.18,3.18,0,0,0,57.6,189.92Z"/><path class="cls-6" d="M67.15,195.94V185.83h1.54v1.44a3.63,3.63,0,0,1,3.21-1.67,4.2,4.2,0,0,1,1.68.33,2.68,2.68,0,0,1,1.15.86,3.38,3.38,0,0,1,.53,1.27,9.06,9.06,0,0,1,.1,1.67v6.21H73.65v-6.15a4.63,4.63,0,0,0-.2-1.56,1.64,1.64,0,0,0-.71-.83,2.23,2.23,0,0,0-1.2-.31,2.79,2.79,0,0,0-1.89.69,3.45,3.45,0,0,0-.79,2.64v5.52Z"/><path class="cls-6" d="M81.72,194.41l.25,1.51a6.39,6.39,0,0,1-1.29.15,3,3,0,0,1-1.45-.29,1.69,1.69,0,0,1-.72-.78,6.09,6.09,0,0,1-.21-2v-5.81H77v-1.34H78.3v-2.5l1.7-1v3.53h1.72v1.34H80v5.9a3.06,3.06,0,0,0,.09,1,.68.68,0,0,0,.3.33,1.14,1.14,0,0,0,.58.12A6.14,6.14,0,0,0,81.72,194.41Z"/><path class="cls-6" d="M82.76,190.89a5.21,5.21,0,0,1,1.56-4.16,4.71,4.71,0,0,1,3.18-1.13A4.54,4.54,0,0,1,90.91,187a5.2,5.2,0,0,1,1.32,3.77,6.67,6.67,0,0,1-.59,3.07,4.08,4.08,0,0,1-1.7,1.74,5,5,0,0,1-2.44.62,4.57,4.57,0,0,1-3.43-1.36A5.46,5.46,0,0,1,82.76,190.89Zm1.76,0a4.26,4.26,0,0,0,.85,2.9,2.81,2.81,0,0,0,4.25,0,4.39,4.39,0,0,0,.85-3,4.16,4.16,0,0,0-.85-2.84,2.74,2.74,0,0,0-2.12-1,2.71,2.71,0,0,0-2.13,1A4.27,4.27,0,0,0,84.52,190.89Z"/><path class="cls-6" d="M94.22,195.94V185.83h1.54v1.54A4.17,4.17,0,0,1,96.85,186a1.89,1.89,0,0,1,1.1-.35,3.34,3.34,0,0,1,1.76.56l-.59,1.59a2.45,2.45,0,0,0-1.26-.38,1.68,1.68,0,0,0-1,.34,1.85,1.85,0,0,0-.63.94,6.71,6.71,0,0,0-.29,2v5.29Z"/><path class="cls-6" d="M107.65,192.69l1.77.21a4.29,4.29,0,0,1-1.56,2.41,4.66,4.66,0,0,1-2.89.86,4.6,4.6,0,0,1-3.51-1.37,5.32,5.32,0,0,1-1.3-3.83,5.57,5.57,0,0,1,1.31-4,4.44,4.44,0,0,1,3.41-1.41,4.32,4.32,0,0,1,3.31,1.38,5.53,5.53,0,0,1,1.28,3.89c0,.1,0,.25,0,.45h-7.53a3.84,3.84,0,0,0,.94,2.55,2.8,2.8,0,0,0,2.11.89,2.64,2.64,0,0,0,1.61-.5A3.37,3.37,0,0,0,107.65,192.69ZM102,189.92h5.64A3.46,3.46,0,0,0,107,188a2.64,2.64,0,0,0-2.12-1,2.76,2.76,0,0,0-2,.79A3.13,3.13,0,0,0,102,189.92Zm1.85-5.34,1.26-2.67h2.25l-2.09,2.67Z"/></g><g class="cls-5"><path d="M179.07,219.68v-14h2.77l3.31,9.87q.45,1.38.66,2.07c.16-.51.41-1.25.74-2.24l3.35-9.7h2.48v14H190.6V208l-4,11.68h-1.67l-4-11.88v11.88Z"/><path d="M202.06,216.42l1.77.22a4.33,4.33,0,0,1-1.55,2.41,4.69,4.69,0,0,1-2.9.86,4.6,4.6,0,0,1-3.51-1.37,5.32,5.32,0,0,1-1.3-3.83,5.61,5.61,0,0,1,1.31-4,4.45,4.45,0,0,1,3.41-1.41,4.32,4.32,0,0,1,3.31,1.38,5.47,5.47,0,0,1,1.28,3.88c0,.11,0,.26,0,.46h-7.53a3.84,3.84,0,0,0,.94,2.55,2.8,2.8,0,0,0,2.11.89A2.62,2.62,0,0,0,201,218,3.28,3.28,0,0,0,202.06,216.42Zm-5.63-2.77h5.65a3.5,3.5,0,0,0-.65-1.91,2.63,2.63,0,0,0-2.12-1,2.76,2.76,0,0,0-2,.79A3.17,3.17,0,0,0,196.43,213.65Z"/><path d="M206,219.68V209.57h1.54V211a3.63,3.63,0,0,1,3.21-1.67,4.2,4.2,0,0,1,1.68.33,2.68,2.68,0,0,1,1.15.86,3.38,3.38,0,0,1,.53,1.27,9,9,0,0,1,.1,1.66v6.22h-1.71v-6.15a4.74,4.74,0,0,0-.2-1.57,1.66,1.66,0,0,0-.71-.82,2.23,2.23,0,0,0-1.2-.31,2.79,2.79,0,0,0-1.89.69,3.44,3.44,0,0,0-.79,2.64v5.52Z"/><path d="M220.55,218.15l.25,1.51a6.39,6.39,0,0,1-1.29.15,3,3,0,0,1-1.45-.29,1.69,1.69,0,0,1-.72-.78,6.09,6.09,0,0,1-.21-2V210.9h-1.26v-1.33h1.26v-2.5l1.7-1v3.53h1.72v1.33h-1.72v5.91a3.06,3.06,0,0,0,.09.95.68.68,0,0,0,.3.33,1.14,1.14,0,0,0,.58.12A6.14,6.14,0,0,0,220.55,218.15Z"/><path d="M221.59,214.62a5.19,5.19,0,0,1,1.56-4.15,4.71,4.71,0,0,1,3.18-1.13,4.54,4.54,0,0,1,3.41,1.37,5.2,5.2,0,0,1,1.32,3.77,6.55,6.55,0,0,1-.59,3.07,4.13,4.13,0,0,1-1.7,1.74,5,5,0,0,1-2.44.62,4.54,4.54,0,0,1-3.43-1.37A5.43,5.43,0,0,1,221.59,214.62Zm1.76,0a4.27,4.27,0,0,0,.85,2.91,2.81,2.81,0,0,0,4.25,0,4.39,4.39,0,0,0,.85-3,4.16,4.16,0,0,0-.85-2.84,2.82,2.82,0,0,0-4.25,0A4.26,4.26,0,0,0,223.35,214.62Z"/><path d="M233.05,219.68V209.57h1.54v1.53a4.11,4.11,0,0,1,1.09-1.41,1.89,1.89,0,0,1,1.1-.35,3.34,3.34,0,0,1,1.76.56l-.59,1.58a2.54,2.54,0,0,0-1.26-.37,1.68,1.68,0,0,0-1,.34,1.85,1.85,0,0,0-.63.94,6.66,6.66,0,0,0-.29,2v5.29Z"/><path d="M246.15,218.43a6.2,6.2,0,0,1-1.83,1.14,5.37,5.37,0,0,1-1.89.34,3.69,3.69,0,0,1-2.56-.82A2.66,2.66,0,0,1,239,217a2.81,2.81,0,0,1,.33-1.35,2.94,2.94,0,0,1,.89-1,4.07,4.07,0,0,1,1.23-.56,13.9,13.9,0,0,1,1.52-.26,15.09,15.09,0,0,0,3.06-.59c0-.23,0-.38,0-.44a1.88,1.88,0,0,0-.49-1.48,2.82,2.82,0,0,0-1.95-.58,3,3,0,0,0-1.78.42,2.58,2.58,0,0,0-.85,1.5l-1.68-.23a4.11,4.11,0,0,1,.75-1.73,3.35,3.35,0,0,1,1.52-1,6.67,6.67,0,0,1,2.29-.36,5.89,5.89,0,0,1,2.1.31,2.4,2.4,0,0,1,1.73,1.93,10.78,10.78,0,0,1,.08,1.58v2.28a24.81,24.81,0,0,0,.11,3,3.86,3.86,0,0,0,.43,1.22h-1.79A3.82,3.82,0,0,1,246.15,218.43ZM246,214.6a12.37,12.37,0,0,1-2.8.65,6.14,6.14,0,0,0-1.49.35,1.44,1.44,0,0,0-.68.55,1.51,1.51,0,0,0,.28,2,2.26,2.26,0,0,0,1.52.45,3.5,3.5,0,0,0,1.76-.43,2.68,2.68,0,0,0,1.13-1.18,4.06,4.06,0,0,0,.28-1.72Z"/><path d="M254.14,218.15l.24,1.51a6.39,6.39,0,0,1-1.29.15,3.05,3.05,0,0,1-1.45-.29,1.69,1.69,0,0,1-.72-.78,6.09,6.09,0,0,1-.21-2V210.9h-1.26v-1.33h1.26v-2.5l1.7-1v3.53h1.73v1.33h-1.73v5.91a3.06,3.06,0,0,0,.09.95.68.68,0,0,0,.3.33,1.14,1.14,0,0,0,.58.12A6.28,6.28,0,0,0,254.14,218.15Z"/></g><g class="cls-5"><path d="M47.77,98.57l1.84.47a6.21,6.21,0,0,1-2.09,3.47,5.76,5.76,0,0,1-3.68,1.19,6.55,6.55,0,0,1-3.67-.92A5.68,5.68,0,0,1,38,100.12a9.48,9.48,0,0,1-.74-3.73,8.32,8.32,0,0,1,.83-3.81,5.75,5.75,0,0,1,2.37-2.46,6.94,6.94,0,0,1,3.38-.84,5.7,5.7,0,0,1,3.52,1.06,5.47,5.47,0,0,1,2,3l-1.81.43a4.36,4.36,0,0,0-1.41-2.22,3.78,3.78,0,0,0-2.32-.69,4.46,4.46,0,0,0-2.69.77,4,4,0,0,0-1.52,2.07,8.36,8.36,0,0,0-.44,2.68,8.6,8.6,0,0,0,.52,3.1,3.88,3.88,0,0,0,1.61,2,4.59,4.59,0,0,0,2.37.65,4,4,0,0,0,2.63-.89A4.6,4.6,0,0,0,47.77,98.57Z"/><path d="M51,98.41a5.21,5.21,0,0,1,1.56-4.16,4.75,4.75,0,0,1,3.18-1.12,4.52,4.52,0,0,1,3.4,1.37,5.15,5.15,0,0,1,1.33,3.77,6.7,6.7,0,0,1-.59,3.07,4.17,4.17,0,0,1-1.7,1.73,4.89,4.89,0,0,1-2.44.62,4.52,4.52,0,0,1-3.43-1.36A5.43,5.43,0,0,1,51,98.41Zm1.76,0a4.27,4.27,0,0,0,.85,2.91,2.71,2.71,0,0,0,2.13,1,2.68,2.68,0,0,0,2.12-1,4.41,4.41,0,0,0,.85-3,4.22,4.22,0,0,0-.85-2.84,2.83,2.83,0,0,0-4.25,0A4.26,4.26,0,0,0,52.79,98.41Z"/><path d="M62.51,103.46V93.36h1.54V94.8a3.63,3.63,0,0,1,3.21-1.67,4.2,4.2,0,0,1,1.68.33,2.61,2.61,0,0,1,1.15.86,3.38,3.38,0,0,1,.53,1.27,8.93,8.93,0,0,1,.1,1.66v6.21H69V97.32a4.48,4.48,0,0,0-.2-1.57,1.65,1.65,0,0,0-.7-.83,2.32,2.32,0,0,0-1.2-.3,2.79,2.79,0,0,0-1.89.69A3.42,3.42,0,0,0,64.22,98v5.51Z"/><path d="M72.66,100.45l1.69-.27a2.36,2.36,0,0,0,.8,1.56,2.76,2.76,0,0,0,1.82.54,2.67,2.67,0,0,0,1.75-.48,1.43,1.43,0,0,0,.57-1.12,1.07,1.07,0,0,0-.5-.92A8,8,0,0,0,77,99.18a15.68,15.68,0,0,1-2.62-.82,2.53,2.53,0,0,1-1.1-1A2.56,2.56,0,0,1,72.94,96a2.69,2.69,0,0,1,.31-1.25,2.89,2.89,0,0,1,.85-1,3.47,3.47,0,0,1,1.09-.49,5,5,0,0,1,1.47-.21,6,6,0,0,1,2.09.34,2.83,2.83,0,0,1,1.33.93A3.58,3.58,0,0,1,80.67,96L79,96.19A1.81,1.81,0,0,0,78.33,95a2.41,2.41,0,0,0-1.54-.44,2.82,2.82,0,0,0-1.69.39,1.14,1.14,0,0,0-.5.91,1,1,0,0,0,.21.6,1.47,1.47,0,0,0,.66.46c.17.06.67.21,1.51.44a21.13,21.13,0,0,1,2.53.79,2.61,2.61,0,0,1,1.13.9,2.45,2.45,0,0,1,.41,1.47,2.91,2.91,0,0,1-.5,1.61,3.25,3.25,0,0,1-1.44,1.17,5.19,5.19,0,0,1-2.13.41,4.7,4.7,0,0,1-3-.82A3.77,3.77,0,0,1,72.66,100.45Z"/><path d="M86.83,101.93l.24,1.52a6.39,6.39,0,0,1-1.29.15,2.93,2.93,0,0,1-1.45-.3,1.62,1.62,0,0,1-.72-.77,6.13,6.13,0,0,1-.21-2V94.69H82.15V93.36H83.4v-2.5l1.71-1v3.53h1.72v1.33H85.11v5.91a3,3,0,0,0,.09.94.73.73,0,0,0,.29.34,1.18,1.18,0,0,0,.59.12A4.83,4.83,0,0,0,86.83,101.93Z"/><path d="M88.51,91.48v-2h1.71v2Zm0,12V93.36h1.71v10.1Z"/><path d="M96.57,101.93l.25,1.52a6.39,6.39,0,0,1-1.29.15,2.88,2.88,0,0,1-1.45-.3,1.57,1.57,0,0,1-.72-.77,6.13,6.13,0,0,1-.21-2V94.69H91.89V93.36h1.26v-2.5l1.7-1v3.53h1.72v1.33H94.85v5.91a3,3,0,0,0,.09.94.75.75,0,0,0,.3.34,1.14,1.14,0,0,0,.58.12A4.83,4.83,0,0,0,96.57,101.93Z"/><path d="M104.87,103.46V102a3.71,3.71,0,0,1-3.21,1.71,4.09,4.09,0,0,1-1.67-.34,2.76,2.76,0,0,1-1.15-.86,3.25,3.25,0,0,1-.53-1.27,8.82,8.82,0,0,1-.1-1.6V93.36h1.71V99a9.79,9.79,0,0,0,.11,1.81,1.72,1.72,0,0,0,.68,1.06,2.11,2.11,0,0,0,1.3.39,2.75,2.75,0,0,0,1.44-.4,2.21,2.21,0,0,0,1-1.07,5.37,5.37,0,0,0,.28-2V93.36h1.71v10.1Z"/><path d="M112.82,101.93l.25,1.52a6.39,6.39,0,0,1-1.29.15,2.9,2.9,0,0,1-1.45-.3,1.62,1.62,0,0,1-.72-.77,6.13,6.13,0,0,1-.21-2V94.69h-1.26V93.36h1.26v-2.5l1.7-1v3.53h1.72v1.33H111.1v5.91a3,3,0,0,0,.09.94.75.75,0,0,0,.3.34,1.14,1.14,0,0,0,.58.12A4.83,4.83,0,0,0,112.82,101.93Z"/><path d="M114.51,91.48v-2h1.71v2Zm0,12V93.36h1.71v10.1Z"/><path d="M118.19,98.41a5.21,5.21,0,0,1,1.56-4.16,4.75,4.75,0,0,1,3.18-1.12,4.54,4.54,0,0,1,3.41,1.37,5.19,5.19,0,0,1,1.32,3.77,6.7,6.7,0,0,1-.59,3.07,4.11,4.11,0,0,1-1.7,1.73,4.87,4.87,0,0,1-2.44.62,4.53,4.53,0,0,1-3.43-1.36A5.43,5.43,0,0,1,118.19,98.41Zm1.76,0a4.27,4.27,0,0,0,.85,2.91,2.71,2.71,0,0,0,2.13,1,2.68,2.68,0,0,0,2.12-1,4.36,4.36,0,0,0,.85-3,4.17,4.17,0,0,0-.85-2.84,2.83,2.83,0,0,0-4.25,0A4.26,4.26,0,0,0,120,98.41Z"/><path d="M129.67,103.46V93.36h1.54V94.8a3.63,3.63,0,0,1,3.22-1.67,4.27,4.27,0,0,1,1.68.33,2.57,2.57,0,0,1,1.14.86,3.23,3.23,0,0,1,.53,1.27,8.93,8.93,0,0,1,.1,1.66v6.21h-1.71V97.32a4.74,4.74,0,0,0-.2-1.57,1.73,1.73,0,0,0-.71-.83,2.32,2.32,0,0,0-1.2-.3,2.79,2.79,0,0,0-1.89.69,3.46,3.46,0,0,0-.79,2.64v5.51Z"/><path d="M152.48,103.46v-1.27a3.15,3.15,0,0,1-2.83,1.5,4,4,0,0,1-2.22-.66,4.41,4.41,0,0,1-1.57-1.86,6.46,6.46,0,0,1-.56-2.75,7.08,7.08,0,0,1,.51-2.74,3.92,3.92,0,0,1,1.51-1.89,4,4,0,0,1,2.25-.66,3.4,3.4,0,0,1,2.79,1.39v-5h1.71v13.95Zm-5.42-5a4.4,4.4,0,0,0,.82,2.9,2.48,2.48,0,0,0,1.93,1,2.42,2.42,0,0,0,1.91-.91,4.28,4.28,0,0,0,.79-2.81,4.76,4.76,0,0,0-.8-3,2.46,2.46,0,0,0-2-1,2.38,2.38,0,0,0-1.91.93A4.6,4.6,0,0,0,147.06,98.42Z"/><path d="M163.68,100.21l1.77.22a4.36,4.36,0,0,1-1.55,2.41,4.69,4.69,0,0,1-2.9.85,4.59,4.59,0,0,1-3.51-1.36,5.32,5.32,0,0,1-1.3-3.83,5.61,5.61,0,0,1,1.31-4,4.45,4.45,0,0,1,3.41-1.41,4.32,4.32,0,0,1,3.31,1.38,5.46,5.46,0,0,1,1.28,3.88c0,.1,0,.26,0,.46H158a3.89,3.89,0,0,0,.94,2.55,2.79,2.79,0,0,0,2.11.88,2.61,2.61,0,0,0,1.61-.49A3.33,3.33,0,0,0,163.68,100.21Zm-5.63-2.77h5.65a3.47,3.47,0,0,0-.65-1.91,2.63,2.63,0,0,0-2.12-1,2.72,2.72,0,0,0-2,.79A3.17,3.17,0,0,0,158.05,97.44Z"/><path d="M166.91,100.45l1.7-.27a2.35,2.35,0,0,0,.79,1.56,2.78,2.78,0,0,0,1.82.54,2.67,2.67,0,0,0,1.75-.48,1.43,1.43,0,0,0,.57-1.12,1,1,0,0,0-.5-.92,7.77,7.77,0,0,0-1.75-.58,15.17,15.17,0,0,1-2.61-.82,2.5,2.5,0,0,1-1.11-1,2.68,2.68,0,0,1-.06-2.61,2.76,2.76,0,0,1,.84-1,3.58,3.58,0,0,1,1.09-.49,5,5,0,0,1,1.48-.21,6.06,6.06,0,0,1,2.09.34,2.8,2.8,0,0,1,1.32.93,3.46,3.46,0,0,1,.59,1.57l-1.67.22a1.84,1.84,0,0,0-.66-1.21,2.44,2.44,0,0,0-1.55-.44,2.79,2.79,0,0,0-1.68.39,1.13,1.13,0,0,0-.51.91,1,1,0,0,0,.21.6,1.47,1.47,0,0,0,.66.46c.17.06.67.21,1.51.44a22.11,22.11,0,0,1,2.54.79,2.67,2.67,0,0,1,1.13.9,2.52,2.52,0,0,1,.4,1.47,2.9,2.9,0,0,1-.49,1.61,3.34,3.34,0,0,1-1.45,1.17,5.12,5.12,0,0,1-2.13.41,4.72,4.72,0,0,1-3-.82A3.77,3.77,0,0,1,166.91,100.45Z"/></g><g class="cls-5"><path d="M69.91,127.2H68.32v-14H70v5a3.42,3.42,0,0,1,2.77-1.36,4.3,4.3,0,0,1,1.77.38,3.67,3.67,0,0,1,1.37,1.05,5,5,0,0,1,.84,1.65,6.82,6.82,0,0,1,.3,2,5.78,5.78,0,0,1-1.28,4,4,4,0,0,1-3.08,1.41,3.2,3.2,0,0,1-2.81-1.49Zm0-5.13a5.21,5.21,0,0,0,.5,2.62A2.45,2.45,0,0,0,72.57,126a2.49,2.49,0,0,0,2-1,4.47,4.47,0,0,0,.81-2.91,4.53,4.53,0,0,0-.78-2.92,2.38,2.38,0,0,0-1.9-.94,2.46,2.46,0,0,0-1.94,1A4.25,4.25,0,0,0,69.89,122.07Z"/><path d="M79.18,115.22v-2h1.71v2Zm0,12V117.09h1.71V127.2Z"/><path d="M83.5,127.2V117.09H85v1.44a3.63,3.63,0,0,1,3.22-1.67,4.27,4.27,0,0,1,1.68.33,2.65,2.65,0,0,1,1.14.86,3.23,3.23,0,0,1,.53,1.27,8.93,8.93,0,0,1,.1,1.66v6.22H90v-6.15a4.74,4.74,0,0,0-.2-1.57,1.66,1.66,0,0,0-.71-.82,2.23,2.23,0,0,0-1.2-.31A2.76,2.76,0,0,0,86,119a3.42,3.42,0,0,0-.8,2.64v5.52Z"/><path d="M93.7,122.14A5.23,5.23,0,0,1,95.26,118a4.75,4.75,0,0,1,3.18-1.12,4.52,4.52,0,0,1,3.4,1.37,5.16,5.16,0,0,1,1.33,3.77,6.7,6.7,0,0,1-.59,3.07,4.25,4.25,0,0,1-1.7,1.74,5,5,0,0,1-2.44.61A4.52,4.52,0,0,1,95,126.06,5.38,5.38,0,0,1,93.7,122.14Zm4.76-7.92-1.08,1.61h-2l2.06-2.66H99.3l2.14,2.66H99.5Zm-3,7.92a4.27,4.27,0,0,0,.85,2.91,2.81,2.81,0,0,0,4.25,0,4.45,4.45,0,0,0,.85-3,4.16,4.16,0,0,0-.86-2.84,2.67,2.67,0,0,0-2.11-1,2.71,2.71,0,0,0-2.13,1A4.26,4.26,0,0,0,95.46,122.14Z"/><path d="M105.17,127.2V117.09h1.54v1.42a3.63,3.63,0,0,1,1.26-1.2,3.59,3.59,0,0,1,1.8-.45,3.33,3.33,0,0,1,1.84.47,2.5,2.5,0,0,1,1,1.3,3.62,3.62,0,0,1,3.12-1.77,3.09,3.09,0,0,1,2.31.83,3.57,3.57,0,0,1,.81,2.57v6.94h-1.71v-6.37a4.78,4.78,0,0,0-.16-1.48,1.43,1.43,0,0,0-.61-.73,1.89,1.89,0,0,0-1-.27,2.37,2.37,0,0,0-1.77.71,3.09,3.09,0,0,0-.71,2.26v5.88h-1.71v-6.57a2.87,2.87,0,0,0-.42-1.71,1.59,1.59,0,0,0-1.37-.57,2.45,2.45,0,0,0-1.34.38,2.16,2.16,0,0,0-.89,1.11,6.38,6.38,0,0,0-.27,2.11v5.25Z"/><path d="M128.33,123.94l1.77.22a4.36,4.36,0,0,1-1.55,2.41,4.69,4.69,0,0,1-2.9.85,4.59,4.59,0,0,1-3.51-1.36,5.32,5.32,0,0,1-1.3-3.83,5.61,5.61,0,0,1,1.31-4,4.45,4.45,0,0,1,3.41-1.41,4.32,4.32,0,0,1,3.31,1.38,5.47,5.47,0,0,1,1.28,3.88c0,.11,0,.26,0,.46h-7.53a3.89,3.89,0,0,0,.94,2.55,2.8,2.8,0,0,0,2.11.89,2.62,2.62,0,0,0,1.61-.5A3.33,3.33,0,0,0,128.33,123.94Zm-5.63-2.77h5.65a3.5,3.5,0,0,0-.65-1.91,2.63,2.63,0,0,0-2.12-1,2.72,2.72,0,0,0-2,.79A3.17,3.17,0,0,0,122.7,121.17Z"/><path d="M131.56,124.18l1.7-.27a2.35,2.35,0,0,0,.79,1.56,2.73,2.73,0,0,0,1.82.55,2.67,2.67,0,0,0,1.75-.48,1.44,1.44,0,0,0,.57-1.13,1,1,0,0,0-.5-.92,7.77,7.77,0,0,0-1.75-.58,15.17,15.17,0,0,1-2.61-.82,2.5,2.5,0,0,1-1.11-1,2.68,2.68,0,0,1-.06-2.61,2.64,2.64,0,0,1,.84-1,3.36,3.36,0,0,1,1.09-.5,5,5,0,0,1,1.48-.21,6.06,6.06,0,0,1,2.09.34,2.8,2.8,0,0,1,1.32.93,3.46,3.46,0,0,1,.59,1.57l-1.67.23a1.87,1.87,0,0,0-.66-1.22,2.44,2.44,0,0,0-1.55-.44,2.79,2.79,0,0,0-1.68.39,1.14,1.14,0,0,0-.51.91.91.91,0,0,0,.21.6,1.47,1.47,0,0,0,.66.46c.17.06.67.21,1.51.44a22.11,22.11,0,0,1,2.54.79,2.67,2.67,0,0,1,1.13.9,2.52,2.52,0,0,1,.4,1.47,2.87,2.87,0,0,1-.49,1.61A3.34,3.34,0,0,1,138,127a5.16,5.16,0,0,1-2.13.41,4.79,4.79,0,0,1-3-.81A3.82,3.82,0,0,1,131.56,124.18Z"/></g></g><path class="cls-3" d="M197.36,165.83l12.76-17.38H205V79.74h5.1L197.36,62.36,184.61,79.74h5.1v68.71h-5.1Z"/><g class="cls-5"><path d="M264,103.82V89.87h9.41v1.65h-7.57v4.32h6.55v1.64h-6.55v6.34Z"/><path d="M282.46,100.57l1.77.21a4.33,4.33,0,0,1-1.55,2.41,4.69,4.69,0,0,1-2.9.86,4.6,4.6,0,0,1-3.51-1.37,5.31,5.31,0,0,1-1.3-3.83,5.61,5.61,0,0,1,1.31-4,4.48,4.48,0,0,1,3.41-1.4A4.32,4.32,0,0,1,283,94.87a5.46,5.46,0,0,1,1.28,3.88c0,.1,0,.25,0,.45h-7.53a3.87,3.87,0,0,0,.94,2.55,2.8,2.8,0,0,0,2.11.89,2.61,2.61,0,0,0,1.61-.49A3.33,3.33,0,0,0,282.46,100.57Zm-5.63-2.77h5.65a3.54,3.54,0,0,0-.65-1.92,2.63,2.63,0,0,0-2.12-1,2.76,2.76,0,0,0-2,.79A3.18,3.18,0,0,0,276.83,97.8Z"/><path d="M293.29,100.57l1.77.21a4.23,4.23,0,0,1-1.55,2.41,5.24,5.24,0,0,1-6.41-.51,5.35,5.35,0,0,1-1.29-3.83,5.57,5.57,0,0,1,1.31-4,4.46,4.46,0,0,1,3.41-1.4,4.32,4.32,0,0,1,3.31,1.38,5.5,5.5,0,0,1,1.28,3.88c0,.1,0,.25,0,.45h-7.53a3.82,3.82,0,0,0,.94,2.55,2.8,2.8,0,0,0,2.11.89,2.63,2.63,0,0,0,1.61-.49A3.32,3.32,0,0,0,293.29,100.57Zm-5.62-2.77h5.64a3.46,3.46,0,0,0-.64-1.92,2.65,2.65,0,0,0-2.13-1,2.76,2.76,0,0,0-2,.79A3.13,3.13,0,0,0,287.67,97.8Z"/><path d="M303.77,103.82v-1.28a3.13,3.13,0,0,1-2.82,1.51,4,4,0,0,1-2.23-.67,4.36,4.36,0,0,1-1.57-1.86,6.41,6.41,0,0,1-.55-2.74,7.13,7.13,0,0,1,.5-2.75,3.93,3.93,0,0,1,3.77-2.54,3.35,3.35,0,0,1,1.63.38,3.52,3.52,0,0,1,1.16,1v-5h1.7v13.95Zm-5.41-5a4.36,4.36,0,0,0,.82,2.9,2.46,2.46,0,0,0,1.93,1,2.41,2.41,0,0,0,1.9-.92,4.18,4.18,0,0,0,.79-2.8,4.8,4.8,0,0,0-.8-3,2.48,2.48,0,0,0-2-1,2.36,2.36,0,0,0-1.91.94A4.6,4.6,0,0,0,298.36,98.78Z"/><path d="M309.63,103.82H308V89.87h1.72v5a3.37,3.37,0,0,1,2.77-1.36,4.21,4.21,0,0,1,1.76.37,3.52,3.52,0,0,1,1.37,1.06,5,5,0,0,1,.84,1.64,6.56,6.56,0,0,1,.31,2,5.75,5.75,0,0,1-1.29,4,4,4,0,0,1-3.08,1.42,3.22,3.22,0,0,1-2.81-1.5Zm0-5.13a5.26,5.26,0,0,0,.5,2.63,2.45,2.45,0,0,0,4.13.34,5.66,5.66,0,0,0,0-5.82,2.38,2.38,0,0,0-1.9-1,2.49,2.49,0,0,0-1.94,1A4.31,4.31,0,0,0,309.61,98.69Z"/><path d="M325.49,102.57a6.65,6.65,0,0,1-1.84,1.15,5.27,5.27,0,0,1-1.88.33,3.63,3.63,0,0,1-2.56-.82,2.66,2.66,0,0,1-.9-2.07,2.72,2.72,0,0,1,.34-1.36,2.81,2.81,0,0,1,.88-1,4.52,4.52,0,0,1,1.24-.56,11.54,11.54,0,0,1,1.52-.25,16.67,16.67,0,0,0,3-.59c0-.24,0-.39,0-.45a1.92,1.92,0,0,0-.48-1.48,2.91,2.91,0,0,0-1.95-.58,3,3,0,0,0-1.79.43,2.63,2.63,0,0,0-.85,1.5l-1.67-.23a4.1,4.1,0,0,1,.75-1.74,3.31,3.31,0,0,1,1.51-1,6.74,6.74,0,0,1,2.3-.35,6.15,6.15,0,0,1,2.1.3,2.76,2.76,0,0,1,1.19.77,2.65,2.65,0,0,1,.53,1.16,9.18,9.18,0,0,1,.09,1.58v2.29a25.8,25.8,0,0,0,.1,3,3.92,3.92,0,0,0,.44,1.21h-1.79A3.59,3.59,0,0,1,325.49,102.57Zm-.15-3.82a12.83,12.83,0,0,1-2.79.65,6.23,6.23,0,0,0-1.5.34,1.46,1.46,0,0,0-.67.55,1.48,1.48,0,0,0-.24.82,1.45,1.45,0,0,0,.52,1.14,2.23,2.23,0,0,0,1.51.46,3.55,3.55,0,0,0,1.77-.44,2.68,2.68,0,0,0,1.13-1.18,4.23,4.23,0,0,0,.27-1.71Z"/><path d="M336.33,100.12l1.68.22a4.35,4.35,0,0,1-1.41,2.72,4.11,4.11,0,0,1-2.8,1,4.31,4.31,0,0,1-3.33-1.36,5.49,5.49,0,0,1-1.26-3.88,7.07,7.07,0,0,1,.54-2.87,3.76,3.76,0,0,1,1.65-1.84,4.88,4.88,0,0,1,2.41-.61,4.18,4.18,0,0,1,2.7.83,3.85,3.85,0,0,1,1.34,2.36l-1.67.26a2.77,2.77,0,0,0-.84-1.53,2.19,2.19,0,0,0-1.46-.52,2.65,2.65,0,0,0-2.1.93,4.41,4.41,0,0,0-.81,2.94,4.56,4.56,0,0,0,.78,3,2.55,2.55,0,0,0,2,.92,2.41,2.41,0,0,0,1.69-.62A3.07,3.07,0,0,0,336.33,100.12Z"/><path d="M339.48,103.82V89.87h1.72v7.95l4.05-4.11h2.22l-3.87,3.75,4.26,6.36h-2.11l-3.34-5.17-1.21,1.16v4Z"/></g></g></svg>